<?xml version="1.0" encoding="UTF-8"?>
<!-- Generator: visioncortex VTracer 0.6.5 -->
<svg version="1.1" xmlns="http://www.w3.org/2000/svg" viewBox="0 0 1400 664" width="1400" height="664">
<path d="M0 0 C3.86 2.91 6.81 5.77 8.66 10.25 C8.9 12.63 8.9 12.63 8.97 15.25 C9.28 19.75 10.27 22.95 12.22 27 C14.48 31.9 14.78 35.27 14.41 40.63 C14.07 47.99 16.19 51.95 20.55 57.6 C23.67 61.7 23.67 61.7 23.63 65.04 C22.19 68.33 19.88 68.95 16.66 70.25 C16.91 71.02 17.16 71.78 17.41 72.57 C17.67 76.43 17.13 78.04 15.72 81.57 C13.92 86.09 13.42 89.49 13.63 94.31 C13.67 97.09 13.15 98.91 11.66 101.25 C7.19 103.73 2.98 103.42 -1.96 103.25 C-9.94 102.98 -9.94 102.98 -13.34 105.25 C-15.62 110.91 -16.39 117.23 -15.34 123.25 C-10.33 131 -1.08 134.51 7.07 138.19 C18.44 143.33 29.08 149.46 34.66 161.25 C35.08 164.6 35.24 166.42 33.3 169.22 C32.65 169.87 32.01 170.52 31.35 171.19 C26.77 176.51 24.07 182.33 21.16 188.69 C14.73 202.53 6.88 212.51 -3.95 223.16 C-4.51 223.71 -5.06 224.26 -5.64 224.82 C-8.5 227.23 -10.44 228.3 -14.21 228.12 C-25.47 225.01 -35.81 213.93 -44.34 206.25 C-45.02 205.65 -45.69 205.05 -46.39 204.43 C-54.51 196.75 -61.04 187.17 -67.46 178.07 C-77.42 164.03 -87.33 154.55 -102.69 146.7 C-105.34 145.25 -105.34 145.25 -107.34 143.25 C-107.26 139.78 -106.61 138.52 -104.11 136.08 C-103.13 135.37 -102.16 134.67 -101.15 133.94 C-100.63 133.56 -100.1 133.18 -99.56 132.78 C-94.42 129.14 -88.99 126.08 -83.47 123.08 C-73.97 117.54 -70.14 109.62 -67.34 99.25 C-65.37 90.86 -65.14 81.96 -69.34 74.25 C-71.05 71.55 -72.8 68.87 -74.56 66.2 C-82.33 53.35 -84.64 38.6 -81.66 23.88 C-77.58 11.96 -69.64 2.42 -58.53 -3.56 C-40.33 -11.84 -17.14 -10.87 0 0 Z " fill="#EFEFF1" transform="translate(357.33984375,289.74609375)"/>
<path d="M0 0 C3.07 1.72 5.4 3.81 7 7 C9.47 7.35 11.86 7.57 14.35 7.71 C15.91 7.82 17.47 7.93 19.02 8.04 C19.85 8.09 20.67 8.15 21.52 8.2 C45.31 9.81 68.06 13.31 91 20 C91.85 20.25 92.7 20.49 93.58 20.74 C131.5 31.92 167.63 52.12 196.73 78.92 C198.81 80.82 200.92 82.67 203.06 84.5 C210.89 91.33 218.76 98.84 224.67 107.43 C228.98 113.62 228.98 113.62 232.23 114.84 C233.76 115.11 235.3 115.35 236.85 115.55 C240.51 116.32 242.39 118.39 245 121 C246.78 124.56 246.37 128.66 245.34 132.43 C244.9 135.75 245.7 136.94 247.46 139.74 C247.74 140.19 247.74 140.19 249.13 142.45 C249.73 143.39 250.32 144.34 250.94 145.31 C252.15 147.3 253.37 149.3 254.57 151.3 C255.17 152.27 255.76 153.25 256.37 154.26 C259.97 160.32 263.06 166.6 266 173 C266.18 173.39 266.18 173.39 267.09 175.37 C275.06 192.84 280.94 210.6 285.25 229.31 C285.48 230.31 285.72 231.3 285.96 232.32 C290.5 253.01 291.39 273.64 291 294.75 C290.92 299.24 290.86 303.74 290.81 308.23 C290.79 309.25 290.76 310.26 290.74 311.3 C290.68 316.39 290.67 319.86 294 324 C295.7 326.64 296.01 327.74 295.88 330.94 C294.86 334.49 293.61 336.39 291 339 C288.86 339.64 288.86 339.64 287 340 C286.78 341.2 286.56 342.4 286.34 343.64 C274.22 408.14 238.67 469.03 187 510 C185.89 510.92 184.78 511.84 183.68 512.77 C142.51 546.93 91.78 566.6 39 573 C38.19 573.1 37.38 573.21 36.54 573.32 C25.09 574.77 13.86 575.19 2.31 574.84 C-7.1 574.65 -7.1 574.65 -11 578 C-11.62 578.7 -12.24 579.4 -12.88 580.12 C-15.88 582.77 -18.04 582.93 -22 583 C-25.16 582.01 -27.26 581.22 -29.02 578.31 C-29.94 576.44 -29.94 576.44 -30.65 574.62 C-33.88 570.74 -40.22 570.76 -44.95 570.17 C-110.02 561.73 -175.76 521.31 -216 470 C-216.88 468.91 -217.76 467.82 -218.65 466.73 C-244.89 434.16 -263.57 395.73 -273 355 C-273.16 354.31 -273.32 353.61 -273.49 352.9 C-276 342.08 -276 342.08 -276 337 C-276.91 336.94 -277.81 336.88 -278.75 336.81 C-282 336 -282 336 -284.31 333.81 C-286.21 330.64 -286.92 328.69 -287 325 C-285.81 321.69 -285.81 321.69 -284 319 C-281.89 318.33 -281.89 318.33 -280 318 C-280.14 316.82 -280.29 315.65 -280.44 314.43 C-284.83 276.43 -278.91 240.18 -267 204 C-266.73 203.17 -266.46 202.33 -266.18 201.48 C-259.24 180.31 -249.59 159.49 -237.67 140.65 C-234.91 136.27 -234.91 136.27 -234 134 C-234.33 133.34 -234.66 132.68 -235 132 C-235.4 127.23 -235.47 124.92 -233.25 120.62 C-231.08 118.1 -230.11 116.98 -227 116 C-225.93 116 -224.85 116 -223.75 116 C-218.61 114.63 -217.07 111.83 -214 107.66 C-211.32 104.09 -208.24 101.06 -205 98 C-204.34 98.33 -203.68 98.66 -203 99 C-203.68 99.8 -204.35 100.59 -205.05 101.41 C-205.95 102.48 -206.85 103.55 -207.75 104.62 C-208.19 105.15 -208.64 105.67 -209.09 106.21 C-212 109.66 -214.56 113.2 -217 117 C-216.77 117.35 -216.77 117.35 -215.62 119.12 C-214 122 -214 122 -213.55 124.97 C-212 128 -212 128 -210.01 129 C-207.23 129.88 -204.45 130.61 -201.62 131.31 C-193.51 133.54 -185.83 136.09 -178.19 139.62 C-177.36 140.01 -176.53 140.39 -175.68 140.78 C-170.67 143.13 -165.74 145.61 -160.97 148.42 C-158.01 149.29 -156.69 148.45 -154 147 C-151.99 145.46 -150.04 143.84 -148.12 142.19 C-136.19 132 -136.19 132 -133 132 C-133 132.99 -133 133.98 -133 135 C-134.39 136.35 -134.39 136.35 -136.32 137.71 C-136.67 137.96 -136.67 137.96 -138.44 139.24 C-138.81 139.5 -138.81 139.5 -140.69 140.81 C-145.88 144.48 -150.15 147.91 -154 153 C-153.31 153.25 -152.63 153.5 -151.92 153.76 C-148.53 155.2 -145.4 156.97 -142.25 158.88 C-141.6 159.26 -140.96 159.65 -140.29 160.05 C-125.15 169.33 -111.16 180.04 -98.19 192.15 C-96.17 193.86 -94.47 195.06 -92 196 C-90.66 195.35 -89.33 194.68 -88 194 C-84.47 193.8 -81.69 193.76 -78.34 194.93 C-72.94 195.04 -70.02 191.65 -66 188.31 C-39.79 167.46 -10.89 150.01 19 135 C19.88 134.55 20.77 134.11 21.68 133.65 C31.93 128.5 42.32 123.94 53.06 119.88 C54.09 119.48 55.12 119.09 56.18 118.69 C63.49 116 63.49 116 68 116 C67.67 116.99 67.34 117.98 67 119 C64.44 120.25 64.44 120.25 61 121.5 C59.72 121.97 58.44 122.44 57.16 122.92 C56.48 123.17 55.8 123.41 55.11 123.67 C24.49 134.86 -3.72 150.24 -31 168 C-32.04 168.67 -33.07 169.34 -34.14 170.04 C-40.57 174.26 -46.88 178.67 -53.19 183.06 C-54.02 183.64 -54.85 184.22 -55.71 184.81 C-60.67 188.29 -65.48 191.89 -70.18 195.71 C-72 197 -72 197 -74 197 C-74 197.66 -74 198.32 -74 199 C-73.31 198.86 -72.62 198.73 -71.9 198.59 C-59.37 196.15 -46.86 193.82 -34.19 192.25 C-33.27 192.13 -32.35 192.02 -31.4 191.9 C4.85 187.61 41.06 189.8 76.76 197.02 C78.03 197.27 79.3 197.53 80.6 197.79 C81.16 197.91 81.16 197.91 83.99 198.5 C86.77 198.96 89.19 199.25 92 199 C92.8 198.33 93.6 197.66 94.43 196.98 C97.73 194.44 99.14 194.85 103.19 195.38 C107.37 195.52 109.33 195.47 112.79 193.04 C115.31 190.44 117.65 187.75 120 185 C121.39 183.7 122.8 182.42 124.25 181.19 C124.88 180.64 125.52 180.1 126.17 179.54 C128.77 177.35 131.38 175.16 134 173 C133.34 172.01 132.68 171.02 132 170 C132.1 166.21 132.96 165.04 135.62 162.25 C137.23 160.42 137.94 159.4 138.28 156.97 C137.84 150.64 135.08 145.45 132 140 C131.71 140.1 131.71 140.1 130.23 140.62 C117.48 144.81 106.29 144.78 93.88 139.38 C85.89 135 78.94 128.22 75 120 C74.68 119.35 74.37 118.7 74.04 118.03 C70.53 109.42 70.67 99.02 73.5 90.25 C78.34 78.89 86.23 70.11 97.47 64.84 C108.28 61.05 119.75 62.14 130 67 C141.5 73.61 147.89 82.15 151.34 94.91 C153.17 103.51 152.35 113.5 147.69 121.16 C147.46 121.47 147.46 121.47 146.31 123.06 C143.48 127.11 143.61 130.56 143.92 135.39 C144 138.1 143.59 140.36 143 143 C142.49 149.41 144.16 154.93 146 161 C147.78 161.61 147.78 161.61 150 162 C152.58 160.68 154.85 159.35 157.25 157.75 C157.9 157.34 158.55 156.93 159.22 156.51 C161.08 155.3 161.08 155.3 164 153 C164 152.01 164 151.02 164 150 C163.48 149.78 162.96 149.57 162.42 149.34 C159.03 147.46 156.25 145.01 153.31 142.5 C153.02 142.25 153.02 142.25 151.51 140.99 C147.13 137.26 147.13 137.26 146 135 C151.59 135.26 154.72 138.91 158.62 142.5 C159.95 143.7 161.27 144.9 162.6 146.09 C163.18 146.63 163.76 147.16 164.36 147.71 C166 149 166 149 169 150 C171.48 148.81 173.81 147.56 176.19 146.19 C183.39 142.22 190.73 138.8 198.31 135.62 C199.29 135.21 200.27 134.79 201.27 134.36 C207.27 131.88 213.07 130.16 219.46 128.98 C222.76 127.71 223.67 126.11 225.38 123.06 C227.26 118.82 227.26 118.82 226.36 115.98 C224.69 113.54 222.82 111.42 220.81 109.25 C218.01 106.2 215.25 103.15 212.56 100 C205.96 92.46 198.85 85.63 191.01 79.39 C188.89 77.71 186.81 76.01 184.74 74.26 C147.18 42.87 100.05 23.76 52 16 C50.72 15.79 49.44 15.57 48.12 15.35 C34.85 13.41 21.39 13.35 8 13 C7.24 16.24 7.24 16.24 7 20 C8.63 22.23 8.63 22.23 11.12 24.19 C11.59 24.57 11.59 24.57 13.92 26.49 C14.94 27.32 15.95 28.15 17 29 C19.15 30.93 21.26 32.9 23.38 34.88 C24.48 35.9 25.59 36.93 26.7 37.95 C26.97 38.2 26.97 38.2 28.36 39.49 C30.97 41.89 33.58 44.29 36.19 46.69 C37.16 47.58 38.13 48.47 39.13 49.39 C42.73 52.67 46.38 55.9 50.04 59.12 C52 61 52 61 54 64 C50.14 62.4 47.42 59.78 44.44 56.94 C40.54 53.29 36.6 49.78 32.44 46.44 C28.67 43.41 25.06 40.27 21.5 37 C20.59 36.18 19.68 35.36 18.74 34.52 C16.89 32.82 15.09 31.08 13.32 29.3 C9.57 25.75 6.85 23.24 1.63 22.57 C-2.94 22.97 -6.52 23.59 -9.91 26.82 C-11.47 29.14 -12.73 31.51 -14 34 C-21.58 45.59 -30.39 55.57 -40.12 65.38 C-40.98 66.24 -41.84 67.11 -42.73 68.01 C-47.24 72.5 -51.68 76.5 -57 80 C-57.66 79.67 -58.32 79.34 -59 79 C-57.55 75.55 -55.71 73.61 -52.88 71.19 C-52.07 70.49 -51.27 69.8 -50.44 69.08 C-49.63 68.39 -48.83 67.71 -48 67 C-33.74 54.73 -18.99 39.31 -11 22 C-11.62 21.79 -12.24 21.59 -12.88 21.38 C-15.84 19.46 -16.02 17.29 -17 14 C-82.7 16.14 -143.88 47.24 -192.38 90.12 C-195.11 92.51 -197.63 94.61 -201 96 C-199.39 92 -196.59 89.28 -193.56 86.31 C-193.02 85.78 -192.49 85.25 -191.93 84.7 C-186.89 79.78 -181.56 75.33 -176 71 C-174.76 70 -173.51 69.01 -172.27 68.01 C-130.77 35.14 -73.54 9.98 -19.9 9.73 C-17 9 -17 9 -15.23 6.07 C-14.83 5.06 -14.42 4.04 -14 3 C-9.92 -0.6 -5.21 -1.01 0 0 Z M-214.93 133 C-215.43 133.47 -215.93 133.95 -216.44 134.44 C-220.4 137.66 -222.98 137.49 -228 137 C-229.34 136.69 -230.67 136.36 -232 136 C-263.29 190.49 -283.64 251.34 -277 315 C-274.69 315.99 -272.38 316.98 -270 318 C-265.57 313.86 -262.11 309.28 -258.56 304.38 C-257.33 302.68 -256.09 300.99 -254.86 299.3 C-254.23 298.44 -253.59 297.57 -252.94 296.67 C-249.74 292.27 -246.53 287.89 -243.31 283.5 C-242.72 282.69 -242.14 281.89 -241.53 281.06 C-240.98 280.31 -240.43 279.55 -239.86 278.78 C-239.62 278.45 -239.62 278.45 -238.4 276.78 C-237.04 275.05 -235.59 273.52 -234 272 C-235.28 275.54 -236.78 278.33 -239.05 281.33 C-239.65 282.13 -240.24 282.93 -240.86 283.75 C-241.48 284.58 -242.11 285.4 -242.75 286.25 C-247.37 292.38 -251.81 298.57 -256 305 C-252.18 303.2 -249.22 300.77 -246.06 298 C-227.74 282.27 -227.74 282.27 -217 277 C-220.71 280.8 -224.58 284.31 -228.62 287.75 C-228.93 288.01 -228.93 288.01 -230.49 289.34 C-235.93 293.97 -241.45 298.5 -247 303 C-249.79 305.29 -252.57 307.58 -255.34 309.9 C-258 312 -258 312 -260.69 313.66 C-263.26 315.3 -265.14 316.57 -267 319 C-267.41 322.49 -267.27 325.53 -266.83 329.01 C-266.88 330 -266.94 330.98 -267 332 C-267.82 332.58 -268.64 333.17 -269.48 333.77 C-272 336 -272 336 -272.42 338.09 C-272.54 344.54 -271.21 350.51 -269.5 356.69 C-269.23 357.68 -268.96 358.67 -268.69 359.69 C-251.76 420.8 -215.82 475.77 -165 514 C-164.44 514.42 -163.88 514.84 -163.31 515.28 C-129 540.92 -89.81 557.77 -47.94 566.44 C-47.15 566.6 -46.36 566.77 -45.54 566.94 C-40.61 567.88 -36.02 568.14 -31 568 C-30.11 565.89 -30.11 565.89 -30 563 C-32.04 560.67 -33.97 558.8 -36.31 556.81 C-37.7 555.58 -39.08 554.34 -40.46 553.09 C-41.2 552.44 -41.94 551.78 -42.7 551.1 C-46.7 547.45 -50.54 543.64 -54.38 539.81 C-54.76 539.43 -54.76 539.43 -56.69 537.5 C-62.18 531.95 -67.29 526.25 -72 520 C-68.02 523 -64.69 526.37 -61.38 530.06 C-53.91 538.26 -46.25 546.18 -37.78 553.37 C-35.37 555.58 -33.34 558.04 -31.32 560.62 C-30 562 -30 562 -27 563 C-26.4 562.69 -25.8 562.38 -25.19 562.06 C-21.63 560.34 -18.28 560.59 -14.57 561.78 C-12 562 -12 562 -9.93 560.26 C-9.59 559.84 -9.59 559.84 -7.88 557.69 C3.28 544.54 17.79 533.22 33 525 C33.66 525 34.32 525 35 525 C35 525.66 35 526.32 35 527 C34.42 527.28 33.83 527.57 33.23 527.86 C22.34 533.43 12.16 540.96 3 549 C1.9 549.92 0.8 550.84 -0.3 551.76 C-1.41 552.71 -2.52 553.67 -3.62 554.62 C-4.15 555.06 -4.67 555.49 -5.21 555.93 C-7.97 558.39 -9 559.98 -9.96 563.59 C-10 566.99 -9.6 568.15 -8 571 C72.81 572.59 146.41 545.22 205 489 C205.89 488.15 206.79 487.29 207.71 486.41 C212.78 481.47 217.38 476.3 221.79 470.77 C223.23 468.96 224.69 467.18 226.18 465.42 C252.43 434.27 268.87 397.3 279.19 358.19 C279.4 357.41 279.61 356.63 279.82 355.83 C280.41 353.61 280.98 351.39 281.54 349.17 C281.72 348.5 281.9 347.84 282.08 347.15 C282.78 344.31 283.13 342.4 282.22 339.59 C280.65 337.55 279.44 337.55 277 337 C275.93 333.8 276.11 332.06 276.38 328.75 C276.4 325.59 276.41 323.66 274.73 320.97 C272.91 319.16 271.02 317.58 269 316 C267.81 314.94 266.62 313.88 265.44 312.81 C263.96 311.54 262.48 310.27 261 309 C259.96 308.1 258.91 307.21 257.87 306.31 C255.49 304.27 253.12 302.23 250.73 300.2 C248.24 298.06 245.75 295.92 243.27 293.77 C233.1 284.99 233.1 284.99 228.19 281.38 C225 279 225 279 224 277 C229.72 279.63 234.2 282.5 238.88 286.69 C239.48 287.21 240.08 287.74 240.7 288.29 C242.47 289.85 244.24 291.42 246 293 C246.94 293.84 247.88 294.68 248.84 295.54 C252.01 298.38 255.16 301.23 258.29 304.11 C259 304.75 259.71 305.4 260.44 306.06 C261.05 306.63 261.67 307.2 262.31 307.79 C264 309 264 309 267 309 C266.78 308.69 266.78 308.69 265.67 307.09 C261.45 301.02 257.22 294.94 252.99 288.86 C251.32 286.46 249.64 284.05 247.97 281.65 C247.17 280.49 246.36 279.34 245.56 278.19 C244.88 277.21 244.2 276.24 243.5 275.23 C242 273 242 273 241 271 C244.6 272.46 246.16 274.23 248.33 277.42 C248.96 278.33 249.58 279.25 250.23 280.19 C250.9 281.18 251.56 282.17 252.25 283.19 C253.67 285.27 255.1 287.35 256.52 289.43 C257.25 290.51 257.99 291.58 258.74 292.69 C262.43 298.1 266.19 303.45 269.94 308.81 C271.28 310.73 272.62 312.66 273.96 314.58 C274.53 315.39 275.09 316.2 275.67 317.03 C277 319 277 319 278 321 C279.32 320.75 280.63 320.47 281.94 320.19 C282.67 320.04 283.4 319.89 284.15 319.73 C284.76 319.49 285.37 319.25 286 319 C289.14 309.58 288.24 298.71 288.25 288.88 C288.25 288.13 288.25 287.38 288.25 286.62 C288.18 232.78 270.71 181.19 242 136 C241.5 136.16 241.5 136.16 239 137 C233.74 137.51 233.74 137.51 231 137 C229.33 135.33 227.67 133.67 226 132 C218.87 131.17 213.27 133.35 206.69 135.94 C206.16 136.14 206.16 136.14 203.52 137.15 C178.03 147.12 178.03 147.12 171 153 C172.57 156.88 175.06 159.2 178.06 162.06 C186.44 170.24 193.46 179.3 200 189 C198.12 188.75 198.12 188.75 196 188 C195.01 186.26 195.01 186.26 194 184 C192.66 182.26 191.28 180.56 189.88 178.88 C186.82 175.21 183.85 171.52 180.94 167.75 C176.86 162.63 172.35 157.12 166 155 C164.26 155.8 164.26 155.8 162.33 157.11 C161.97 157.35 161.97 157.35 160.15 158.57 C159.38 159.1 158.61 159.64 157.81 160.19 C157.01 160.73 156.21 161.28 155.39 161.84 C142.71 170.55 130.54 179.83 119 190 C118.22 190.66 117.44 191.32 116.64 192 C113.33 194.97 112.11 196.15 111.5 200.69 C111.67 201.78 111.83 202.87 112 204 C112.01 204.33 112.01 204.33 112.07 206.01 C113.38 208.81 115.38 209.31 118.17 210.36 C118.89 210.61 119.62 210.87 120.38 211.14 C121.13 211.42 121.89 211.7 122.67 212 C125.11 212.91 127.55 213.8 130 214.69 C141.4 218.84 152.14 223.38 162.75 229.29 C166 231 166 231 168 231 C168 231.99 168 232.98 168 234 C167.65 233.82 167.65 233.82 165.85 232.93 C141.89 221.07 141.89 221.07 129.38 216.31 C128.55 216 127.73 215.68 126.89 215.36 C124.61 214.52 122.32 213.74 120 213 C119.19 212.74 118.39 212.48 117.56 212.21 C115.32 211.59 113.33 211.08 111 211 C108.79 212.87 108.79 212.87 107 215 C104.3 215.26 104.3 215.26 101.31 215.12 C96.22 215.43 93.94 216.28 90.5 220.06 C88.97 222.02 87.47 224 86 226 C85.05 227.21 84.09 228.42 83.13 229.62 C75.83 238.92 69.8 248.73 64 259 C62.84 261.03 61.68 263.05 60.5 265.06 C60.06 265.84 59.61 266.61 59.16 267.41 C58.77 267.93 58.39 268.46 58 269 C57.34 269 56.68 269 56 269 C57.43 263.99 59.6 260.03 62.38 255.69 C62.81 255 63.25 254.31 63.7 253.59 C71.57 241.32 79.93 229.68 89.6 218.76 C94.03 213.67 94.03 213.67 93.91 210.85 C92.94 207.28 92.23 204.74 88.95 202.77 C86.17 201.86 83.43 201.24 80.56 200.69 C79.51 200.46 78.46 200.22 77.38 199.99 C54.47 195.14 31.39 192.77 8 192.75 C7.17 192.75 6.34 192.75 5.49 192.75 C-19.09 192.78 -42.99 195.66 -67 201 C-67.73 201.14 -68.46 201.28 -69.21 201.42 C-71.11 201.83 -71.11 201.83 -74 203 C-75.34 205.38 -75.34 205.38 -75.94 208.12 C-76.05 208.58 -76.05 208.58 -76.59 210.88 C-76.66 211.23 -76.66 211.23 -77 213 C-76.12 213.78 -75.23 214.55 -74.32 215.35 C-62.81 225.65 -50.99 238.03 -44 252 C-49.18 248.15 -53.01 243.82 -56.62 238.5 C-62.5 229.86 -69.62 222.38 -77 215 C-80.27 214.84 -83.53 214.75 -86.8 214.67 C-90 214 -90 214 -92.42 211.45 C-92.68 211.05 -92.68 211.05 -94 209 C-101.12 211.02 -108.01 213.42 -114.91 216.09 C-115.91 216.48 -116.92 216.86 -117.95 217.26 C-121.14 218.48 -124.32 219.71 -127.5 220.94 C-129.63 221.76 -131.77 222.58 -133.9 223.4 C-142.96 226.88 -152 230.38 -161 234 C-157.69 230.59 -154.22 228.94 -149.94 226.94 C-149.11 226.55 -148.29 226.16 -147.44 225.76 C-132.06 218.68 -116.11 212.55 -99.78 208.04 C-97 207 -97 207 -95 204 C-94.61 201.08 -94.61 201.08 -95 198 C-96.73 195.8 -96.73 195.8 -99.19 193.75 C-100.11 192.98 -101.03 192.2 -101.98 191.41 C-102.98 190.61 -103.97 189.82 -105 189 C-105.48 188.61 -105.48 188.61 -107.93 186.66 C-111.25 184.05 -114.62 181.52 -118 179 C-118.67 178.5 -119.33 178 -120.02 177.48 C-131.55 168.83 -143.52 161.21 -156 154 C-160.89 157.5 -165.27 161.02 -169.31 165.5 C-169.54 165.75 -169.54 165.75 -170.69 167.02 C-174.8 171.64 -178.63 176.47 -182.38 181.37 C-184.46 184.07 -186.49 186.68 -189 189 C-185.61 179.19 -176.57 171.33 -169.6 163.82 C-166.33 160.27 -163.15 156.65 -160 153 C-163.24 149.5 -166.92 147.83 -171.19 145.81 C-172.01 145.42 -172.83 145.03 -173.68 144.63 C-180.56 141.48 -187.57 138.9 -194.75 136.5 C-195.76 136.16 -196.77 135.82 -197.81 135.48 C-211.29 131.12 -211.29 131.12 -214.93 133 Z " fill="#F1F2F3" transform="translate(321,43)"/>
<path d="M0 0 C0.89 0.02 1.78 0.03 2.7 0.05 C4.58 0.09 6.46 0.13 8.34 0.17 C11.21 0.23 14.08 0.28 16.95 0.32 C18.78 0.36 20.61 0.4 22.44 0.44 C23.29 0.45 24.15 0.46 25.03 0.47 C29.72 0.6 32.92 0.93 36.72 3.98 C39.95 8.77 40.17 12.4 39.72 17.98 C39.07 19.33 38.4 20.66 37.72 21.98 C38.2 25.85 39.52 28.94 41.22 32.42 C43.59 37.53 45.06 41.49 44.28 47.17 C44.89 52.48 47.61 55.41 50.87 59.53 C52.72 61.98 52.72 61.98 53.72 64.98 C52.91 65.54 52.11 66.1 51.28 66.67 C47.52 70.32 48.06 75.09 47.96 80.02 C47.72 82.98 47.72 82.98 45.72 85.98 C45.7 88.78 45.91 91.51 46.14 94.29 C45.72 96.98 45.72 96.98 43.82 99.29 C39.51 101.64 35.75 101.65 30.91 101.73 C30.02 101.76 29.14 101.79 28.23 101.82 C26.06 101.89 23.89 101.94 21.72 101.98 C20.43 107.25 19.39 112.29 19.28 117.73 C19.24 118.8 19.2 119.87 19.16 120.97 C19.9 124.96 21.49 126.73 24.72 128.98 C28.5 131.15 32.39 133.09 36.28 135.05 C51.4 143.01 59.64 151.9 68.99 166.04 C73.38 172.65 78.21 178.26 83.72 183.98 C84.87 185.35 86.02 186.73 87.16 188.11 C91.47 193.05 96.57 196.96 101.72 200.98 C102.71 201.79 103.7 202.6 104.72 203.43 C115.53 212.06 127.31 218.9 139.72 224.98 C139.2 230.84 138.09 235.58 135.72 240.98 C111.94 252.87 67.09 238.9 43.84 231.23 C40.37 230.05 37.78 229.03 34.72 226.98 C34.95 226.04 35.18 225.1 35.41 224.12 C38.63 209.76 38.03 197.72 30.34 184.63 C23.07 174.35 12.93 167.85 0.72 164.98 C-2.39 164.67 -5.47 164.6 -8.59 164.61 C-9.43 164.61 -10.27 164.61 -11.13 164.61 C-17.53 164.73 -22.65 165.83 -28.28 168.98 C-32 170.98 -32 170.98 -34.59 171.05 C-38.81 169.38 -41.32 166.33 -44.28 162.98 C-45.09 162.14 -45.89 161.29 -46.72 160.42 C-49.24 154.87 -49.06 148.98 -48.28 142.98 C-47.16 140.18 -47.16 140.18 -45.28 137.98 C-42.29 136.8 -42.29 136.8 -38.84 135.98 C-33.5 134.72 -31.35 133.55 -28.28 128.98 C-27.49 126.15 -27.49 126.15 -27.09 123.1 C-26.93 121.99 -26.77 120.89 -26.61 119.76 C-26.46 118.61 -26.31 117.47 -26.16 116.3 C-25.85 114.02 -25.53 111.75 -25.21 109.47 C-25.08 108.47 -24.95 107.46 -24.81 106.43 C-24.28 103.98 -24.28 103.98 -22.28 101.98 C-21.98 99.12 -21.98 99.12 -21.97 95.67 C-21.95 94.54 -21.94 93.41 -21.92 92.25 C-22.32 88.63 -23.09 86.86 -25.28 83.98 C-25.62 83.77 -25.62 83.77 -27.36 82.66 C-30.28 80.11 -30.4 76.89 -31.03 73.23 C-32.62 65.3 -35.53 58.92 -39.57 51.96 C-43.25 45.55 -42.53 39.19 -42.28 31.98 C-42.26 31.09 -42.24 30.19 -42.22 29.26 C-41.34 20.81 -35.09 15.58 -29.28 9.98 C-28.62 9.33 -27.96 8.67 -27.28 8 C-19.52 0.76 -10.2 -0.21 0 0 Z " fill="#688065" transform="translate(217.28125,309.015625)"/>
<path d="M0 0 C8.19 7.45 13.71 18.15 14.44 29.25 C14.22 37.92 12.36 49.39 7.18 56.5 C5.99 57.57 4.78 58.61 3.53 59.61 C1.24 61.7 0.67 63.88 -0.1 66.81 C0 69 0 69 1.41 72.05 C4.02 77.72 3.82 83.95 4.17 90.08 C4.82 99.27 4.82 99.27 8 103 C9.73 104.26 9.73 104.26 11.62 105.12 C12.32 105.45 13.01 105.77 13.73 106.1 C16.83 107.33 19.99 108.25 23.21 109.09 C25 110 25 110 25.71 111.71 C25.81 112.47 25.9 113.22 26 114 C26.14 114.95 26.27 115.9 26.41 116.88 C26.73 121.76 26.95 125.5 24.27 129.72 C21.94 132.25 19.49 134.62 17 137 C15.7 138.56 14.43 140.14 13.19 141.75 C-15.25 177.64 -15.25 177.64 -27.99 179.42 C-31.57 178.92 -33.39 177.78 -36.31 175.69 C-41.09 172.47 -45.44 170.42 -51 169 C-51.4 168.89 -51.4 168.89 -53.44 168.31 C-67.02 166.66 -79.48 170.19 -90.75 177.88 C-93.75 180.71 -96.39 183.8 -99 187 C-102.47 186.24 -105 184.92 -108 183 C-106.56 177.93 -103.61 175.5 -99.75 172.19 C-89.95 163.75 -84.49 153.67 -78.68 142.28 C-70.95 127.18 -62.12 116.23 -47.32 107.77 C-44.55 105.66 -43.85 104.36 -43 101 C-42.79 93.91 -43.98 87.4 -47 81 C-50.58 79.21 -55.1 80.05 -59.06 80.21 C-62.21 80.28 -64.58 80.21 -67.43 78.8 C-69.39 76.55 -69.75 75.06 -70.19 72.12 C-70.34 71.16 -70.49 70.19 -70.65 69.19 C-71.14 64.75 -71.29 60.31 -71.36 55.85 C-72.2 52.1 -73.87 51.07 -77 49 C-75.67 45.2 -73.96 42.55 -71.44 39.44 C-67.86 34.49 -67.33 30.74 -67.17 24.74 C-66.94 21.07 -65.51 18.33 -64 15 C-63.7 13.17 -63.43 11.34 -63.19 9.5 C-62.21 3.89 -60.62 0.43 -56 -3 C-37.78 -13.11 -16.56 -12.85 0 0 Z " fill="#CFAE6A" transform="translate(462,341)"/>
<path d="M0 0 C26.13 0.04 26.13 0.04 35.15 8.32 C35.7 8.93 36.26 9.55 36.83 10.19 C37.25 10.31 37.25 10.31 39.33 10.94 C42.67 12.61 43.24 14.5 44.73 17.83 C47.24 23.21 50.54 28.25 53.83 33.19 C55.24 47.79 52.2 58.28 43.83 70.19 C43.59 70.54 43.59 70.54 42.36 72.29 C38.7 76.97 33.99 80.15 29.13 83.49 C26.83 85.19 26.83 85.19 25.83 87.19 C24.49 98.85 29.73 106.48 36.21 115.61 C41.48 123.17 44.91 131.85 43.54 141.22 C41.5 147.93 36.41 153.07 31.83 158.19 C31.14 158.97 30.45 159.74 29.73 160.54 C10.56 180.83 -16.85 191.59 -43.42 198.13 C-44.27 198.34 -45.13 198.55 -46.02 198.77 C-51.19 199.97 -55.86 200.39 -61.17 200.19 C-65.66 188.96 -65.66 188.96 -66.44 186.99 C-67.06 185.47 -67.71 183.96 -68.36 182.45 C-69.17 180.19 -69.17 180.19 -69.17 176.19 C-67.18 174.66 -67.18 174.66 -64.42 173.13 C-49.51 164.14 -37.64 149.91 -27.12 136.23 C-23.66 131.75 -19.99 127.53 -16.14 123.37 C-15.49 122.65 -14.84 121.93 -14.17 121.19 C-13.42 120.39 -12.68 119.59 -11.91 118.77 C-8.81 114.19 -10.22 109.41 -11.17 104.19 C-13.28 96.08 -13.28 96.08 -15.17 94.19 C-18.5 93.81 -21.83 93.47 -25.18 93.2 C-28.59 92.85 -30.86 92.41 -33.67 90.39 C-35.37 87.89 -35.58 86.85 -35.35 83.88 C-35.21 80.91 -35.26 78.6 -35.73 75.63 C-36.25 71.54 -35.81 68.25 -35.17 64.19 C-36.49 63.53 -37.81 62.87 -39.17 62.19 C-39.06 57.63 -37.84 55.53 -34.67 52.44 C-34.04 51.87 -33.41 51.3 -32.76 50.71 C-29.79 47.88 -29.95 45.21 -29.54 41.25 C-28.81 36.07 -27.58 32.81 -24.54 28.57 C-21.05 23.65 -20.71 20.49 -21.1 14.57 C-21.19 11.28 -20.37 9.62 -18.17 7.19 C-14.48 4.52 -10.34 2.96 -6.17 1.19 C-4.45 -0.52 -2.29 0.03 0 0 Z " fill="#688065" transform="translate(509.16748046875,348.8095703125)"/>
<path d="M0 0 C6.36 5.03 8.69 10.91 11.37 18.38 C12.13 19.94 12.9 21.51 13.68 23.06 C15.16 26.25 15.44 28.22 15.06 31.69 C14.66 37.63 18.86 41.44 22.5 45.68 C24.37 48.38 24.37 48.38 24.34 50.61 C23.37 52.38 23.37 52.38 20.37 54.38 C19.89 57.34 19.89 57.34 19.75 60.88 C19.45 67.21 19.45 67.21 18.37 69.38 C18.18 71.9 18.05 74.43 17.95 76.96 C17.37 79.38 17.37 79.38 15.88 81.15 C12.19 82.95 8.68 82.94 4.62 83.06 C4.22 83.08 4.22 83.08 2.22 83.17 C0.27 83.25 -1.68 83.31 -3.63 83.38 C-8.58 100.53 -8.58 100.53 -5.48 108.23 C-3.24 112.03 -0.58 115.11 2.37 118.38 C6.1 122.5 9.1 126.21 11.37 131.38 C10.98 131.9 10.6 132.42 10.2 132.96 C4.75 140.66 1.08 148.87 0.37 158.38 C0.32 159 0.27 159.63 0.21 160.27 C-0.12 167.79 1.76 175.08 3.37 182.38 C-2.25 181.81 -6.74 179.73 -11.75 177.31 C-12.17 177.11 -12.17 177.11 -14.3 176.09 C-25.4 170.65 -34.69 163.93 -43.63 155.38 C-44.35 154.72 -45.07 154.06 -45.82 153.38 C-51.81 147.74 -58.07 140.35 -58.87 131.84 C-59.18 119.45 -54.78 111.4 -48.22 101.3 C-44.02 94.7 -41.55 88.69 -41.69 80.78 C-42.63 77.38 -42.63 77.38 -45.36 75.44 C-45.93 75.19 -45.93 75.19 -48.82 73.94 C-59.54 68.64 -62.52 61.28 -66.63 50.38 C-67.2 50.48 -67.77 50.59 -68.35 50.7 C-74.01 51.58 -77.51 51.33 -82.63 48.38 C-87.79 44.15 -90.28 39.59 -91 32.94 C-90.32 26.46 -88.74 22.05 -84 17.44 C-80.44 14.59 -77.51 13.29 -72.95 13.09 C-68.79 13.6 -65.26 15.37 -61.63 17.38 C-61.59 16.71 -61.55 16.06 -61.5 15.38 C-59.65 9.03 -55.56 4.66 -50.07 1.12 C-34.78 -7.21 -15.38 -9.51 0 0 Z " fill="#E4E5E9" transform="translate(163.62890625,356.625)"/>
<path d="M0 0 C9.81 7.67 14.77 17.49 16.53 29.78 C16.87 37.56 15.07 46.1 10.5 52.44 C7.66 56.48 7.8 59.94 8.11 64.76 C8.19 67.48 7.78 69.73 7.19 72.38 C6.69 78.63 7.93 84.55 10.19 90.38 C11.79 92.2 11.79 92.2 13.19 93.38 C11.23 94.69 9.27 96 7.31 97.31 C6.22 98.04 5.13 98.77 4.01 99.53 C1.19 101.38 1.19 101.38 -0.81 102.38 C-2.38 101.19 -2.38 101.19 -3.81 99.38 C-3.81 95.58 -2.83 94.39 -0.19 91.62 C1.42 89.79 2.13 88.78 2.47 86.34 C2.02 80.01 -0.73 74.82 -3.81 69.38 C-4.4 69.58 -4.98 69.78 -5.58 70 C-18.33 74.19 -29.53 74.16 -41.94 68.75 C-49.93 64.38 -56.87 57.6 -60.81 49.38 C-61.13 48.72 -61.45 48.07 -61.77 47.4 C-65.28 38.8 -65.14 28.4 -62.31 19.62 C-57.47 8.27 -49.59 -0.52 -38.34 -5.78 C-25.05 -10.44 -11.46 -7.73 0 0 Z " fill="#6A8165" transform="translate(456.8125,113.625)"/>
<path d="M0 0 C9.21 7.07 15.95 16.06 17.69 27.81 C18.6 40.62 17.17 51.78 8.6 61.85 C0.58 70.1 -9.62 74.81 -21.15 75.1 C-31.9 75.2 -40.89 73.64 -49.47 66.63 C-58.57 57.66 -62.75 46.62 -63.34 34.01 C-63.24 22.91 -59.72 12.64 -52.09 4.41 C-38.16 -8.08 -15.75 -10.45 0 0 Z " fill="#CFAE6A" transform="translate(135.3125,240.1875)"/>
<path d="M0 0 C9.66 8.43 13.53 18.83 14.84 31.36 C15.32 42.16 11.78 51.8 5.18 60.36 C-2.97 69.13 -13.32 72.51 -25 74 C-35.12 74.33 -43.54 71.4 -51.25 64.88 C-60.24 56.26 -64.91 46.19 -65.4 33.8 C-65.59 22.19 -62.84 11.9 -55 3 C-39.27 -10.78 -17.12 -11.79 0 0 Z " fill="#CFAE6A" transform="translate(562,242)"/>
<path d="M0 0 C9.88 8.1 15.03 19.25 16.32 31.86 C16.82 43.53 12.91 53.36 5.13 61.88 C-3.98 70.72 -15.13 74.08 -27.55 74.1 C-37.13 73.88 -44.23 70.66 -51.28 64.16 C-60.54 54.15 -64.49 42.37 -64.21 28.91 C-63.11 17.62 -58.79 9.05 -50.53 1.47 C-36.06 -10.24 -15.09 -10.86 0 0 Z " fill="#E7E8EB" transform="translate(246.90234375,113.28125)"/>
<path d="M0 0 C9.09 6.51 14.55 16.28 16.85 27.14 C17.93 35.87 17.18 43.84 12.06 51.12 C7.96 57.27 9.14 63.3 10.25 70.31 C6.88 69.77 5.17 69.26 2.25 67.31 C-1.7 67.51 -4.86 68.76 -8.44 70.31 C-17.49 74.03 -26.38 73.94 -35.75 71.31 C-36.84 70.76 -37.94 70.2 -39.06 69.62 C-42.47 67.96 -44.15 68.3 -47.75 69.31 C-49.09 69.96 -50.43 70.63 -51.75 71.31 C-52.74 71.31 -53.73 71.31 -54.75 71.31 C-54.44 70.74 -54.13 70.17 -53.81 69.58 C-52.55 66.67 -51.9 64.5 -51.75 61.31 C-53.42 57.61 -55.34 54.7 -57.7 51.39 C-62.75 43.82 -63.44 34.67 -62.19 25.81 C-60.02 15.59 -54.1 6.25 -45.62 0.19 C-30.63 -9.2 -15.1 -9.14 0 0 Z " fill="#698065" transform="translate(231.75,485.6875)"/>
<path d="M0 0 C8.36 8.01 12.86 18.56 13.68 30.09 C13.71 41.83 10.48 52.95 2.44 61.75 C-6.41 69.71 -17.23 72.23 -28.88 71.69 C-39.18 70.63 -47.97 66.67 -55 58.96 C-63.72 48.01 -65.43 36.45 -64.31 22.81 C-62.29 12 -56.56 3.39 -47.55 -2.91 C-32.23 -11.68 -13.67 -11.57 0 0 Z " fill="#E6E7EB" transform="translate(426.3125,523.1875)"/>
<path d="M0 0 C0.66 0 1.32 0 2 0 C1.43 3.6 0.51 6.23 -1.37 9.34 C-1.61 9.76 -1.61 9.76 -2.85 11.84 C-3.37 12.72 -3.9 13.59 -4.44 14.5 C-32.94 63.49 -47.92 123.2 -42 180 C-40.02 180.66 -38.04 181.32 -36 182 C-32.36 178.53 -29.44 175.02 -26.56 170.88 C-25.7 169.64 -24.83 168.41 -23.96 167.17 C-23.49 166.51 -23.02 165.84 -22.54 165.16 C-19.66 161.11 -16.7 157.12 -13.75 153.12 C-13.17 152.34 -12.59 151.56 -12 150.75 C-8.36 145.82 -4.69 140.9 -1 136 C-0.34 136.33 0.32 136.66 1 137 C-0.29 140.54 -1.79 143.35 -4.05 146.36 C-4.65 147.17 -5.24 147.97 -5.86 148.8 C-6.48 149.63 -7.11 150.46 -7.75 151.31 C-8.36 152.13 -8.97 152.95 -9.59 153.79 C-11.39 156.2 -13.19 158.6 -15 161 C-16.15 162.54 -17.3 164.07 -18.45 165.61 C-19.3 166.74 -20.15 167.87 -21 169 C-16.66 165.85 -12.5 162.6 -8.45 159.1 C10.08 143.1 10.08 143.1 17 142 C15.46 146.24 12.3 148.34 8.81 150.94 C3.46 155.02 -1.69 159.25 -6.75 163.69 C-11.69 168.01 -16.68 172.22 -21.84 176.28 C-23.95 177.96 -25.98 179.71 -28 181.5 C-31 184 -31 184 -33 184 C-32.84 184.66 -32.67 185.32 -32.5 186 C-31.85 189.87 -31.69 193.06 -32 197 C-33.88 199.5 -33.88 199.5 -36 201 C-36.66 201 -37.32 201 -38 201 C-33.99 246.8 -9.57 293.8 19 329 C19.47 329.58 19.93 330.15 20.41 330.75 C30.64 343.32 41.59 355.55 54 366 C54.53 366.45 55.05 366.91 55.6 367.38 C91.68 398.47 149.86 432.92 199.38 432.06 C199.97 432.05 199.97 432.05 203 432 C202.57 427.18 200.81 425.51 197.19 422.44 C184.23 411.08 171.3 398.87 161 385 C161.33 384.34 161.66 383.68 162 383 C170.48 391.31 170.48 391.31 174.31 395.81 C181.01 403.6 188.42 410.77 196.25 417.4 C198.66 419.6 200.67 422.05 202.68 424.62 C204 426 204 426 207 427 C207.3 426.85 207.3 426.85 208.81 426.06 C213.13 423.97 217.48 425.04 222 426 C222.42 425.5 222.85 425.01 223.29 424.5 C223.87 423.82 224.46 423.14 225.06 422.44 C225.63 421.78 226.2 421.11 226.79 420.43 C232.13 414.56 237.72 409.4 244.06 404.62 C244.8 404.07 245.53 403.51 246.28 402.94 C251.06 399.37 255.89 395.91 260.88 392.62 C261.16 392.43 261.16 392.43 262.62 391.45 C264.24 390.41 264.24 390.41 267 389 C267.99 389.33 268.98 389.66 270 390 C266.06 394.29 261.82 397.2 256.88 400.25 C249.81 404.72 243.3 409.49 237 415 C235.98 415.84 234.97 416.67 233.92 417.54 C232.92 418.39 231.91 419.24 230.88 420.12 C229.96 420.89 229.05 421.66 228.12 422.45 C225.44 425.67 225.16 427.85 225 432 C225.3 433.34 225.62 434.68 226 436 C307.35 434.51 379.54 409.98 439 353 C439.82 352.22 440.64 351.44 441.49 350.64 C446.29 345.97 450.58 341.03 454.76 335.8 C456.21 333.99 457.68 332.19 459.18 330.42 C486.56 297.92 503.11 259.4 513.08 218.44 C513.26 217.7 513.44 216.97 513.63 216.21 C513.97 214.82 514.3 213.43 514.63 212.04 C515.41 208.86 516.16 206.77 518 204 C518.99 204.33 519.98 204.66 521 205 C508.95 271.02 473.94 333.02 421 375 C419.89 375.92 418.78 376.84 417.68 377.77 C376.51 411.93 325.78 431.6 273 438 C272.19 438.1 271.38 438.21 270.54 438.32 C259.09 439.77 247.86 440.19 236.31 439.84 C226.9 439.65 226.9 439.65 223 443 C222.38 443.7 221.76 444.4 221.12 445.12 C218.12 447.77 215.96 447.93 212 448 C208.84 447.01 206.74 446.22 204.98 443.31 C204.06 441.44 204.06 441.44 203.35 439.62 C200.12 435.74 193.78 435.76 189.05 435.17 C123.98 426.73 58.24 386.31 18 335 C17.12 333.91 16.24 332.82 15.35 331.73 C-10.89 299.16 -29.57 260.73 -39 220 C-39.16 219.31 -39.32 218.61 -39.49 217.9 C-42 207.08 -42 207.08 -42 202 C-42.91 201.94 -43.81 201.88 -44.75 201.81 C-48 201 -48 201 -50.31 198.81 C-52.21 195.64 -52.92 193.69 -53 190 C-51.81 186.69 -51.81 186.69 -50 184 C-47.89 183.33 -47.89 183.33 -46 183 C-46.07 182.41 -46.07 182.41 -46.44 179.43 C-50.83 141.43 -44.91 105.18 -33 69 C-32.73 68.17 -32.46 67.33 -32.18 66.48 C-24.53 43.15 -13.62 20.43 0 0 Z " fill="#E6E7EA" transform="translate(87,178)"/>
<path d="M0 0 C1.92 1.92 3.41 3.78 5 6 C3.85 7.81 3.85 7.81 -2 17 C-6.8 15.08 -11.33 12.85 -15.92 10.48 C-22.18 7.29 -28.24 5.62 -35.19 7.64 C-37.15 8.38 -39.07 9.18 -41 10 C-41.99 10.33 -42.98 10.66 -44 11 C-46.68 16.07 -47.44 21.05 -46.19 26.62 C-43.45 32.17 -36.57 34.08 -31.08 36.05 C-27.01 37.38 -22.93 38.64 -18.83 39.87 C-7.59 43.43 0.83 48.82 6.81 59.12 C9.67 66.73 10 75.54 6.95 83.07 C2.84 91.44 -3.4 96.68 -12 100 C-17.72 101.69 -22.86 102.36 -28.81 102.31 C-29.6 102.31 -30.39 102.3 -31.2 102.3 C-45.67 102.01 -57.05 96.18 -68 87 C-67.47 83.28 -66.66 81.08 -64.19 78.25 C-63.94 77.95 -63.94 77.95 -62.67 76.45 C-60.66 74.71 -59.67 74.08 -57 74 C-54.55 75.51 -54.55 75.51 -51.88 77.69 C-41.93 85.18 -33.55 87.38 -21 86 C-16.78 84.83 -13.92 83.1 -11.06 79.69 C-9.16 74.89 -8.63 71.42 -9.94 66.38 C-15.42 57.41 -26.99 55.42 -36.45 52.45 C-47.06 49.09 -55.54 45.42 -62 36 C-65.49 28.82 -66.31 21.07 -64.31 13.32 C-61.23 4.84 -57.13 -0.13 -49.12 -4.31 C-32.93 -11.76 -14.54 -11.08 0 0 Z " fill="#EFEFF1" transform="translate(721,269)"/>
<path d="M0 0 C5.61 0 11.22 0 17 0 C26.59 27.25 35.95 54.56 45 82 C48.29 74.22 50.99 66.27 53.62 58.26 C54.37 55.99 55.12 53.72 55.87 51.46 C58 45.03 60.12 38.59 62.24 32.16 C63.55 28.2 64.85 24.25 66.17 20.3 C66.66 18.79 67.16 17.29 67.65 15.79 C68.34 13.7 69.03 11.61 69.73 9.52 C70.12 8.33 70.51 7.14 70.91 5.91 C72 3 72 3 74 0 C76.63 -0.22 79.01 -0.28 81.62 -0.19 C82.33 -0.17 83.04 -0.16 83.77 -0.15 C85.51 -0.11 87.26 -0.06 89 0 C90 2 90 2 89.44 4.09 C89.11 4.96 88.79 5.83 88.46 6.73 C88.09 7.72 87.72 8.72 87.35 9.74 C86.94 10.83 86.52 11.92 86.1 13.05 C85.68 14.19 85.26 15.33 84.82 16.5 C83.67 19.61 82.51 22.71 81.35 25.82 C80.14 29.03 78.95 32.26 77.75 35.48 C76.29 39.42 74.82 43.36 73.35 47.3 C70.17 55.86 67 64.42 63.85 72.98 C63.06 75.13 62.28 77.27 61.49 79.41 C60.37 82.44 59.26 85.48 58.14 88.52 C57.12 91.29 56.1 94.07 55.08 96.84 C54.78 97.66 54.48 98.48 54.17 99.33 C52.11 104.89 52.11 104.89 51 106 C48.81 106.07 46.62 106.08 44.44 106.06 C43.84 106.06 43.84 106.06 40.81 106.04 C40.35 106.03 40.35 106.03 38 106 C34.98 100.24 32.61 94.51 30.49 88.37 C30.16 87.44 29.84 86.52 29.5 85.56 C28.43 82.52 27.37 79.48 26.31 76.44 C24.8 72.13 23.29 67.82 21.77 63.52 C21.39 62.41 21 61.31 20.6 60.17 C17.81 52.26 14.97 44.37 12.1 36.48 C11.71 35.4 11.31 34.32 10.91 33.21 C9.37 28.99 7.84 24.78 6.3 20.58 C5.23 17.68 4.18 14.78 3.12 11.89 C2.8 11.03 2.49 10.17 2.16 9.28 C1.87 8.49 1.59 7.7 1.29 6.89 C1.04 6.21 0.79 5.53 0.53 4.82 C0 3 0 3 0 0 Z " fill="#688065" transform="translate(1046,264)"/>
<path d="M0 0 C9.2 6.63 14.68 15.19 16.93 26.39 C18.53 38.59 16.36 49.62 9.32 59.84 C3.13 67.48 -5.08 72.5 -14.94 73.55 C-28.17 74.49 -38.87 73.21 -49.56 64.75 C-58.02 56.63 -61.62 45.56 -62.06 34.12 C-61.82 21.78 -57.56 11.32 -48.91 2.5 C-35.65 -8.72 -14.42 -8.89 0 0 Z M-40.69 16.31 C-45.67 24.33 -46.89 32.43 -45.26 41.75 C-43.2 49.03 -38.88 54.31 -32.5 58.31 C-24.67 60.37 -16.94 60.42 -9.66 56.63 C-3.64 52.6 -0.91 47.66 0.84 40.71 C2.35 32.98 1.11 24.61 -3.23 17.93 C-7.41 12.92 -12.08 9.31 -18.69 8.31 C-27.3 7.64 -34.67 10.02 -40.69 16.31 Z " fill="#EFEFF1" transform="translate(799.6875,297.6875)"/>
<path d="M0 0 C5.54 4.58 8.83 10.4 10.62 17.31 C10.9 21.52 10.86 25.72 10.82 29.93 C10.82 31.14 10.81 32.35 10.81 33.6 C10.8 37.46 10.78 41.33 10.75 45.19 C10.74 47.81 10.73 50.43 10.72 53.05 C10.7 59.47 10.67 65.89 10.62 72.31 C6 72.31 1.38 72.31 -3.38 72.31 C-4.37 70 -5.36 67.69 -6.38 65.31 C-6.99 65.89 -7.61 66.47 -8.25 67.06 C-17.28 73.56 -26.57 74.43 -37.38 73.31 C-43.75 71.6 -49.3 68.27 -53.12 62.81 C-56.34 56.39 -56.41 48.66 -54.76 41.74 C-52.16 35 -47.66 31.22 -41.14 28.32 C-29.85 24.24 -18.1 24.92 -6.38 26.31 C-6.06 21.08 -6.47 17.73 -9.38 13.31 C-14.61 9.42 -19.94 8.56 -26.38 9.31 C-37.56 12.1 -37.56 12.1 -42.38 15.31 C-44.31 15.38 -44.31 15.38 -46.38 14.31 C-50.4 8.66 -50.4 8.66 -50.33 4.78 C-48.63 0.39 -44.56 -0.54 -40.49 -2.39 C-27.77 -7.68 -11.72 -8.02 0 0 Z M-37.38 41.56 C-39.89 45.03 -40.45 47.03 -40.38 51.31 C-39.05 55.29 -37.14 57.73 -33.81 60.25 C-27.51 62.2 -21.1 62.45 -15 59.69 C-9.93 56.72 -6.62 52.96 -5.06 47.25 C-4.52 44.13 -4.09 41.45 -4.38 38.31 C-7.27 35.42 -15.86 36.18 -19.88 36.06 C-26.63 36.15 -31.94 37.49 -37.38 41.56 Z " fill="#EFEFF1" transform="translate(989.375,297.6875)"/>
<path d="M0 0 C8.28 5.34 12.64 13.58 15 23 C15 27.95 15 32.9 15 38 C-1.83 38 -18.66 38 -36 38 C-33.16 50.76 -33.16 50.76 -28.28 54.22 C-21.6 57.93 -15.2 58.81 -7.81 56.88 C-4.52 55.79 -2.28 54.61 0.25 52.25 C3 50 3 50 6.19 49.94 C9 51 9 51 10.94 52.62 C12.61 56.37 12.4 58.13 11 62 C7.93 64.55 4.59 66.28 1 68 C0.33 68.33 -0.33 68.66 -1.02 69 C-10.71 73.23 -21.26 72.7 -31 69 C-40.01 64.42 -46.34 57.4 -50 48 C-53.64 36.76 -53.05 24.11 -47.75 13.49 C-42.94 5.78 -36.54 -0.27 -27.9 -3.34 C-18.37 -5.51 -8.5 -5.04 0 0 Z M-33.44 15.81 C-35 19 -35 19 -36 27 C-23.79 27 -11.58 27 1 27 C-0 18.97 -0.76 15.92 -6.56 10.69 C-15.9 4.22 -26.59 7.91 -33.44 15.81 Z " fill="#688065" transform="translate(1181,300)"/>
<path d="M0 0 C0.64 0.43 1.29 0.86 1.95 1.31 C2.64 1.77 3.34 2.23 4.05 2.71 C11.08 8.1 15.75 16.52 16.95 25.31 C17.04 27.56 17.08 29.81 17.07 32.06 C17.08 32.63 17.08 32.63 17.08 35.54 C16.95 38.31 16.95 38.31 15.95 39.31 C14.35 39.4 12.75 39.43 11.15 39.42 C10.13 39.42 9.11 39.42 8.06 39.42 C6.95 39.42 5.84 39.41 4.7 39.41 C3.56 39.4 2.43 39.4 1.27 39.4 C-2.36 39.4 -5.99 39.38 -9.61 39.37 C-12.07 39.37 -14.52 39.36 -16.97 39.36 C-23 39.35 -29.02 39.33 -35.05 39.31 C-34.46 41.07 -33.86 42.83 -33.25 44.59 C-33.09 45.08 -33.09 45.08 -32.24 47.56 C-29.84 53.11 -25.48 55.89 -20.05 58.18 C-11.99 60.79 -5.85 58.59 1.45 55.12 C1.94 54.85 2.44 54.58 2.95 54.31 C2.95 53.65 2.95 52.99 2.95 52.31 C5.01 51.37 5.01 51.37 7.95 51.31 C10.58 53.38 12.76 55.78 14.95 58.31 C12.2 64.69 6.26 67.94 0.07 70.62 C-10.55 74.5 -20.92 73.81 -31.24 69.25 C-39.02 65.04 -45.22 57.71 -48.05 49.31 C-51.17 37.32 -50.58 25.5 -45.05 14.31 C-36.04 -0.53 -16.23 -8.94 0 0 Z M-30.43 15.75 C-33.31 20.29 -34.05 22.81 -34.05 28.31 C-22.17 28.31 -10.29 28.31 1.95 28.31 C0.76 17.62 0.76 17.62 -3.05 13.31 C-7.85 9.66 -11.54 8.66 -17.55 8.92 C-22.88 9.75 -26.69 11.91 -30.43 15.75 Z " fill="#688065" transform="translate(1355.05078125,298.69140625)"/>
<path d="M0 0 C3.07 1.72 5.4 3.81 7 7 C9.47 7.35 11.86 7.57 14.35 7.71 C15.91 7.82 17.47 7.93 19.02 8.04 C19.44 8.07 19.44 8.07 21.52 8.2 C45.31 9.81 68.06 13.31 91 20 C91.85 20.25 92.7 20.49 93.58 20.74 C131.5 31.92 167.63 52.12 196.73 78.92 C198.81 80.82 200.92 82.67 203.06 84.5 C213.55 93.66 222.4 104.1 231 115 C230.5 115.33 230.5 115.33 228 117 C216.27 104.37 216.27 104.37 212.38 99.81 C205.86 92.32 198.78 85.57 191.01 79.39 C188.89 77.71 186.81 76.01 184.74 74.26 C147.18 42.87 100.05 23.76 52 16 C50.72 15.79 49.44 15.57 48.12 15.35 C34.85 13.41 21.39 13.35 8 13 C7.24 16.24 7.24 16.24 7 20 C8.63 22.23 8.63 22.23 11.12 24.19 C11.59 24.57 11.59 24.57 13.92 26.49 C14.94 27.32 15.95 28.15 17 29 C19.15 30.93 21.26 32.9 23.38 34.88 C24.48 35.9 25.59 36.93 26.7 37.95 C26.97 38.2 26.97 38.2 28.36 39.49 C30.97 41.89 33.58 44.29 36.19 46.69 C37.16 47.58 38.13 48.47 39.13 49.39 C42.73 52.67 46.38 55.9 50.04 59.12 C52 61 52 61 54 64 C50.14 62.4 47.42 59.78 44.44 56.94 C40.54 53.29 36.6 49.78 32.44 46.44 C28.67 43.41 25.06 40.27 21.5 37 C20.59 36.18 19.68 35.36 18.74 34.52 C16.89 32.82 15.09 31.08 13.32 29.3 C9.57 25.75 6.85 23.24 1.63 22.57 C-2.94 22.97 -6.52 23.59 -9.91 26.82 C-11.47 29.14 -12.73 31.51 -14 34 C-21.58 45.59 -30.39 55.57 -40.12 65.38 C-40.98 66.24 -41.84 67.11 -42.73 68.01 C-47.24 72.5 -51.68 76.5 -57 80 C-57.66 79.67 -58.32 79.34 -59 79 C-57.55 75.55 -55.71 73.61 -52.88 71.19 C-52.07 70.49 -51.27 69.8 -50.44 69.08 C-49.63 68.39 -48.83 67.71 -48 67 C-33.74 54.73 -18.99 39.31 -11 22 C-11.62 21.79 -12.24 21.59 -12.88 21.38 C-15.84 19.46 -16.02 17.29 -17 14 C-82.7 16.14 -143.88 47.24 -192.38 90.12 C-195.11 92.51 -197.63 94.61 -201 96 C-199.39 92 -196.59 89.28 -193.56 86.31 C-193.02 85.78 -192.49 85.25 -191.93 84.7 C-186.89 79.78 -181.56 75.33 -176 71 C-174.76 70 -173.51 69.01 -172.27 68.01 C-130.77 35.14 -73.54 9.98 -19.9 9.73 C-17 9 -17 9 -15.23 6.07 C-14.83 5.06 -14.42 4.04 -14 3 C-9.92 -0.6 -5.21 -1.01 0 0 Z " fill="#E6E7EB" transform="translate(321,43)"/>
<path d="M0 0 C0.61 0.39 1.22 0.78 1.85 1.18 C2.9 1.84 3.96 2.5 5.04 3.18 C10.19 7.91 13.27 14.68 14.4 21.5 C14.77 30.29 12.72 36.94 6.76 43.46 C-0.81 50.58 -7.25 52.85 -17.64 52.58 C-26.35 51.58 -32.08 47.16 -37.52 40.49 C-42.19 33.85 -43.12 27.21 -42.15 19.18 C-40.01 10.07 -34.46 3.58 -26.59 -1.32 C-18.52 -4.89 -7.68 -4.18 0 0 Z " fill="#FFFFFF" transform="translate(447.1484375,121.82421875)"/>
<path d="M0 0 C2.13 1.71 3.49 2.99 4.73 5.42 C4.76 8.67 3 9.96 0.81 12.25 C0.06 13.05 -0.69 13.85 -1.46 14.67 C-2.05 15.28 -2.64 15.88 -3.25 16.5 C-6.32 15.05 -9.05 13.31 -11.88 11.44 C-17.88 7.85 -23 6.53 -29.89 8.1 C-35.87 10.16 -40.04 13 -43.25 18.5 C-47.06 26.58 -47.08 34.87 -44.34 43.31 C-41.66 49.43 -38.34 52.76 -32.25 55.5 C-25.3 57.82 -18.79 56.94 -12.3 53.72 C-9.3 51.93 -6.82 49.87 -4.25 47.5 C-2.6 48.99 -2.6 48.99 5.75 56.5 C1.88 64.23 -4.29 67.47 -12.21 70.52 C-22.42 73.8 -32.95 72.79 -42.62 68.19 C-52.48 62.76 -58.42 54.98 -62.25 44.5 C-64.99 32.96 -63.21 20.86 -57.52 10.47 C-51.74 1.5 -44.24 -4.46 -33.76 -7.14 C-21.74 -8.88 -9.94 -7.32 0 0 Z " fill="#EFEFF1" transform="translate(888.25,299.5)"/>
<path d="M0 0 C0.38 0 0.38 0 2.29 0 C8.19 0.13 12.73 1.16 17.75 4.38 C18.06 4.57 18.06 4.57 19.62 5.53 C21.02 6.44 22.39 7.4 23.75 8.38 C22.49 12.88 20.85 15.87 17.75 19.38 C17.19 19.09 16.63 18.8 16.05 18.51 C9.27 15.16 3.41 12.47 -4.25 13.38 C-7.19 14.44 -7.19 14.44 -9.25 16.38 C-10.38 19.81 -10.38 19.81 -10.25 23.38 C-6.13 27.68 -0.77 29.34 4.69 31.38 C12.81 34.42 19.63 36.99 24.75 44.38 C26.77 50.43 26.84 57.82 24.31 63.75 C20.6 70.1 13.64 73.52 6.75 75.38 C-6.05 76.53 -15.67 74.68 -25.85 66.55 C-26.31 66.16 -26.77 65.77 -27.25 65.38 C-26.8 60.31 -24.47 58.08 -21.25 54.38 C-20.72 54.66 -20.72 54.66 -18.07 56.12 C-3.86 63.73 -3.86 63.73 3.75 62.38 C8.84 60.28 8.84 60.28 10.75 58.38 C11.34 52.11 11.34 52.11 9.04 49.27 C6.62 47.26 4.73 46.38 1.76 45.41 C0.81 45.08 -0.15 44.76 -1.13 44.42 C-3.12 43.77 -5.11 43.12 -7.1 42.46 C-14.05 40.08 -20.15 37.58 -23.62 30.62 C-25.93 25.48 -26.23 20.69 -24.62 15.27 C-21.92 9.02 -17.01 4.34 -11.01 1.2 C-7.34 0.1 -3.8 -0.01 0 0 Z " fill="#678064" transform="translate(1274.25,295.625)"/>
<path d="M0 0 C0.54 -0 0.54 -0 3.25 -0.01 C6 0.12 6 0.12 8 1.12 C8 37.43 8 73.73 8 111.12 C3.05 111.12 -1.9 111.12 -7 111.12 C-8 110.12 -8 110.12 -8.12 108.3 C-8.12 107.5 -8.12 106.69 -8.12 105.87 C-8.12 104.95 -8.12 104.03 -8.12 103.08 C-8.12 102.07 -8.12 101.05 -8.11 100.01 C-8.11 98.94 -8.11 97.88 -8.11 96.78 C-8.11 93.25 -8.11 89.72 -8.1 86.18 C-8.1 83.74 -8.09 81.3 -8.09 78.86 C-8.09 72.41 -8.08 65.97 -8.07 59.53 C-8.06 52.96 -8.05 46.39 -8.05 39.82 C-8.04 26.92 -8.02 14.02 -8 1.12 C-5.27 -0.24 -3.04 -0.01 0 0 Z " fill="#EFEFF1" transform="translate(1024,258.875)"/>
<path d="M0 0 C0.99 0.33 1.98 0.66 3 1 C-9.05 67.02 -44.06 129.02 -97 171 C-98.11 171.92 -99.22 172.84 -100.32 173.77 C-155.7 219.72 -223.43 236.97 -294 234 C-293.83 233.67 -293.83 233.67 -293 232 C-292.59 231.99 -292.59 231.99 -290.49 231.96 C-209.72 230.38 -137.98 205.52 -79 149 C-78.18 148.22 -77.36 147.44 -76.51 146.64 C-71.71 141.97 -67.42 137.03 -63.24 131.8 C-61.79 129.99 -60.32 128.19 -58.82 126.42 C-31.44 93.92 -14.89 55.4 -4.92 14.44 C-4.74 13.7 -4.56 12.97 -4.37 12.21 C-4.03 10.82 -3.7 9.43 -3.37 8.04 C-2.59 4.86 -1.84 2.77 0 0 Z " fill="#E6E7EA" transform="translate(605,382)"/>
<path d="M0 0 C0 4.95 0 9.9 0 15 C-1.69 15.1 -3.38 15.21 -5.12 15.31 C-9.73 15.72 -12.98 16.63 -17 19 C-17.66 19 -18.32 19 -19 19 C-19.29 19.72 -19.58 20.44 -19.88 21.19 C-21 24 -21 24 -22.04 26.03 C-23.46 30.44 -23.36 34.73 -23.41 39.33 C-23.43 40.32 -23.45 41.32 -23.47 42.34 C-23.53 45.5 -23.58 48.65 -23.62 51.81 C-23.66 53.96 -23.7 56.1 -23.74 58.25 C-23.84 63.5 -23.92 68.75 -24 74 C-28.95 74 -33.9 74 -39 74 C-39 50.24 -39 26.48 -39 2 C-34.05 2 -29.1 2 -24 2 C-23.67 4.64 -23.34 7.28 -23 10 C-22.34 9.09 -21.68 8.19 -21 7.25 C-15.12 0.29 -8.76 -0.49 0 0 Z " fill="#688065" transform="translate(1245,296)"/>
<path d="M0 0 C3.54 1.62 6.92 3.48 10.31 5.38 C11.23 5.87 12.15 6.36 13.1 6.88 C13.97 7.36 14.84 7.84 15.74 8.34 C16.53 8.77 17.33 9.21 18.15 9.67 C20 11 20 11 21 14 C20.67 14.66 20.34 15.32 20 16 C13.4 16 6.8 16 0 16 C0 24.25 0 32.5 0 41 C2.64 40.67 5.28 40.34 8 40 C7.92 39.48 7.92 39.48 7.5 36.88 C6.71 30.63 6.71 24.28 7 18 C8 17 8 17 11.56 16.94 C12.7 16.96 13.83 16.98 15 17 C16.24 19.49 16.08 21.09 16.03 23.87 C16.02 24.35 16.02 24.35 15.99 26.8 C15.96 28.84 15.92 30.88 15.87 32.93 C15.87 33.41 15.87 33.41 15.84 35.87 C15.82 36.76 15.81 37.64 15.79 38.56 C16.01 41.16 16.68 42.77 18 45 C12.38 45.02 6.75 45.04 1.13 45.05 C-0.78 45.06 -2.7 45.07 -4.61 45.08 C-7.36 45.09 -10.11 45.09 -12.86 45.1 C-13.71 45.1 -14.57 45.11 -15.45 45.11 C-15.85 45.11 -15.85 45.11 -17.87 45.11 C-18.58 45.12 -19.28 45.12 -20 45.12 C-22.11 44.99 -23.97 44.57 -26 44 C-26 43.34 -26 42.68 -26 42 C-24.68 41.34 -23.36 40.68 -22 40 C-22.04 39.34 -22.07 38.68 -22.11 38 C-22.26 35.02 -22.41 32.04 -22.56 29.06 C-22.62 28.02 -22.67 26.98 -22.73 25.91 C-22.78 24.92 -22.83 23.93 -22.88 22.91 C-22.93 21.99 -22.97 21.08 -23.02 20.13 C-23 18 -23 18 -22 17 C-24.31 16.34 -26.62 15.68 -29 15 C-28.64 12.42 -28.38 11.3 -26.3 9.66 C-25.57 9.27 -24.85 8.89 -24.11 8.49 C-23.71 8.28 -23.71 8.28 -21.71 7.19 C-20.88 6.76 -20.04 6.32 -19.19 5.88 C-18.37 5.43 -17.55 4.99 -16.7 4.54 C-14.48 3.34 -12.24 2.16 -10 1 C-9.31 0.62 -8.61 0.25 -7.89 -0.14 C-4.87 -1.51 -3.19 -0.9 0 0 Z " fill="#F3F4F4" transform="translate(227,120)"/>
<path d="M0 0 C4.95 0 9.9 0 15 0 C15 25.41 15 50.82 15 77 C9.72 77 4.44 77 -1 77 C-1.02 67.11 -1.04 57.22 -1.05 47.32 C-1.06 42.73 -1.06 38.14 -1.08 33.55 C-1.09 29.12 -1.09 24.69 -1.09 20.26 C-1.1 18.57 -1.1 16.87 -1.11 15.18 C-1.11 12.82 -1.11 10.45 -1.11 8.09 C-1.12 7.38 -1.12 6.68 -1.12 5.95 C-1.11 1.11 -1.11 1.11 0 0 Z " fill="#EFEFF1" transform="translate(906,293)"/>
<path d="M0 0 C0.66 0.33 1.32 0.66 2 1 C1.66 1.4 1.66 1.4 -0.05 3.41 C-0.95 4.48 -1.85 5.55 -2.75 6.62 C-3.19 7.15 -3.64 7.67 -4.09 8.21 C-7 11.66 -9.56 15.2 -12 19 C-11.55 19.7 -11.09 20.4 -10.62 21.12 C-9 24 -9 24 -8.55 26.97 C-7 30 -7 30 -5.01 31 C-2.23 31.88 0.55 32.61 3.38 33.31 C11.49 35.54 19.17 38.09 26.81 41.62 C27.64 42.01 28.47 42.39 29.32 42.78 C34.33 45.13 39.26 47.61 44.03 50.42 C46.99 51.29 48.31 50.45 51 49 C53.01 47.46 54.96 45.84 56.88 44.19 C68.81 34 68.81 34 72 34 C72 34.99 72 35.98 72 37 C70.61 38.35 70.61 38.35 68.68 39.71 C67.98 40.21 67.28 40.72 66.56 41.24 C65.82 41.76 65.08 42.28 64.31 42.81 C59.12 46.48 54.85 49.91 51 55 C51.69 55.25 52.37 55.5 53.08 55.76 C56.47 57.2 59.6 58.97 62.75 60.88 C63.4 61.26 64.04 61.65 64.71 62.05 C79.88 71.34 93.82 82.11 106.91 94.15 C109 96 109 96 112 98 C112 98.66 112 99.32 112 100 C107.85 99.48 105.42 97 102.44 94.31 C86.09 80.06 67.89 67.62 49 57 C38.69 63.83 31.19 73.51 23.75 83.23 C21.34 86.37 18.88 89.28 16 92 C15.67 91.01 15.34 90.02 15 89 C16.32 86.89 17.63 85.05 19.19 83.12 C19.64 82.56 20.08 81.99 20.55 81.4 C25.28 75.48 30.45 69.96 35.65 64.45 C38.52 61.37 41.26 58.19 44 55 C34.62 47.3 21.71 43.35 10.38 39.56 C9.36 39.22 8.34 38.88 7.29 38.53 C-2.9 35.21 -2.9 35.21 -8 35 C-9.93 36 -9.93 36 -11.44 37.44 C-14.06 39.55 -15.73 40.4 -19.12 40.5 C-23.01 40 -24.97 39.41 -28 37 C-30.47 33.29 -30.67 30.3 -30 26 C-28.38 22.88 -27.04 20.76 -24.19 18.69 C-22 18 -22 18 -18.75 18 C-13.61 16.63 -12.07 13.83 -9 9.66 C-6.32 6.09 -3.24 3.06 0 0 Z " fill="#E9EAEC" transform="translate(116,141)"/>
<path d="M0 0 C0.66 0 1.32 0 2 0 C1.84 0.54 1.67 1.08 1.5 1.64 C0.91 4.4 0.9 6.93 0.94 9.75 C0.95 10.73 0.96 11.72 0.96 12.73 C0.98 13.48 0.99 14.23 1 15 C1.69 15.12 2.38 15.23 3.09 15.35 C9.12 16.7 14.86 19.21 20.62 21.44 C21.32 21.7 22.01 21.97 22.72 22.24 C34.27 26.7 45.25 31.81 56 38 C56 38.99 56 39.98 56 41 C51.83 39.69 47.96 38.12 44.03 36.21 C42.89 35.66 41.75 35.12 40.58 34.56 C39.98 34.27 39.39 33.99 38.78 33.69 C8.02 19 8.02 19 -1 19 C-1.58 19.66 -2.17 20.31 -2.77 20.99 C-5.63 23.56 -6.97 23.32 -10.75 23.19 C-15.49 23.47 -17.8 24 -21 27.56 C-22.36 29.35 -23.69 31.17 -25 33 C-25.93 34.19 -26.87 35.38 -27.8 36.56 C-34.66 45.29 -40.4 54.43 -45.88 64.07 C-48.43 68.47 -51.22 72.74 -54 77 C-54.99 76.67 -55.98 76.34 -57 76 C-55.57 70.99 -53.4 67.03 -50.62 62.69 C-50.19 62 -49.75 61.31 -49.3 60.59 C-41.43 48.32 -33.07 36.68 -23.4 25.76 C-21 23 -21 23 -19 20 C-19.31 19.3 -19.62 18.6 -19.94 17.88 C-21.41 13.89 -21.43 10.03 -20 6 C-17.26 3.09 -15.75 2.07 -11.74 1.68 C-11.17 1.71 -11.17 1.71 -8.31 1.88 C-6.21 1.98 -4.1 2.04 -2 2 C-1.34 1.34 -0.68 0.68 0 0 Z " fill="#E6E7EB" transform="translate(433,236)"/>
<path d="M0 0 C4.7 3.74 8.78 7.82 12.81 12.25 C19.91 20.03 27.16 27.51 35.18 34.33 C37.61 36.56 39.65 39.03 41.68 41.62 C43 43 43 43 46 44 C46.6 43.69 47.2 43.38 47.81 43.06 C52.13 40.97 56.48 42.04 61 43 C61.42 42.5 61.85 42.01 62.29 41.5 C62.87 40.82 63.46 40.14 64.06 39.44 C64.63 38.78 65.2 38.11 65.79 37.43 C71.13 31.56 76.72 26.4 83.06 21.62 C83.8 21.07 84.53 20.51 85.28 19.94 C90.06 16.37 94.89 12.91 99.88 9.62 C100.45 9.24 101.03 8.85 101.62 8.45 C103.24 7.41 103.24 7.41 106 6 C106.99 6.33 107.98 6.66 109 7 C105.06 11.29 100.82 14.2 95.88 17.25 C88.81 21.72 82.3 26.49 76 32 C75.49 32.42 75.49 32.42 72.92 34.54 C71.92 35.39 70.91 36.24 69.88 37.12 C68.96 37.89 68.05 38.66 67.12 39.45 C64.46 42.65 64.2 44.9 64 49 C64.5 51.38 64.5 51.38 65 53 C64.67 53.33 64.34 53.66 64 54 C68.95 54.16 68.95 54.16 94 55 C92 57 92 57 89.56 57.18 C88.55 57.15 87.55 57.12 86.51 57.09 C85.96 57.08 85.96 57.08 83.18 57.03 C80.86 56.97 78.55 56.9 76.23 56.83 C75.13 56.82 74.02 56.8 72.89 56.78 C71.88 56.75 70.87 56.72 69.83 56.69 C65.54 57.16 62.94 58.93 60.12 62.12 C57.12 64.77 54.96 64.93 51 65 C47.4 63.99 45.61 62.91 43.52 59.79 C42.26 57.56 41.1 55.31 40 53 C40.66 53 41.32 53 42 53 C41.67 52.01 41.34 51.02 41 50 C41.25 49.22 41.5 48.44 41.76 47.63 C41.84 46.76 41.92 45.89 42 45 C40.32 43.02 38.8 41.57 36.81 39.94 C35.61 38.89 34.42 37.84 33.22 36.78 C32.56 36.19 31.89 35.6 31.2 35 C7.91 13.86 7.91 13.86 0 2 C0 1.34 0 0.68 0 0 Z " fill="#728367" transform="translate(248,561)"/>
<path d="M0 0 C2.41 0.38 3.71 0.7 5.44 2.46 C5.66 2.78 5.66 2.78 6.78 4.37 C7.28 5.08 7.79 5.79 8.31 6.52 C8.58 6.91 8.58 6.91 9.94 8.88 C10.5 9.67 11.07 10.47 11.65 11.3 C13.45 13.86 15.23 16.43 17 19 C17.29 19.42 17.29 19.42 18.76 21.55 C21.55 25.61 24.33 29.67 27.1 33.75 C29.97 37.98 32.92 42.15 35.93 46.29 C37 48 37 48 37 50 C37.7 49.65 38.4 49.3 39.12 48.94 C42.5 47.84 44.58 48.2 48 49 C48.33 48.01 48.66 47.02 49 46 C49.43 46.89 49.87 47.77 50.31 48.69 C52 52 52 52 53.75 54.5 C55.42 57.85 55.11 59.46 54 63 C51.85 66.72 50.74 67.8 46.56 68.94 C41.89 69.02 39.57 67.98 35.69 65.56 C33.61 62.4 34.14 61.74 34.69 58.12 C34.82 54.95 34.64 52.87 32.72 50.27 C28.53 45.76 23.77 41.87 19 38 C17.97 37.14 16.94 36.28 15.91 35.43 C14.13 33.96 12.33 32.51 10.53 31.07 C8 29 5.59 26.84 3.19 24.62 C-1.47 20.36 -6.39 16.5 -11.44 12.72 C-15.89 9.32 -15.89 9.32 -17 6 C-7.93 7.28 -1.31 15.48 5.16 21.44 C8.8 24.72 12.58 27.82 16.39 30.89 C19.29 33.23 22.15 35.61 25 38 C24.56 37.37 24.12 36.74 23.67 36.09 C23.06 35.21 22.45 34.33 21.82 33.43 C21.14 32.45 20.46 31.48 19.77 30.48 C18.29 28.37 16.82 26.25 15.36 24.14 C9.08 15.1 9.08 15.1 5.93 10.65 C5.51 10.05 5.09 9.45 4.66 8.83 C3.58 7.3 2.49 5.76 1.41 4.23 C0 2 0 2 0 0 Z " fill="#CEAD69" transform="translate(562,314)"/>
<path d="M0 0 C11.22 0 22.44 0 34 0 C33.23 4.6 32.32 8.59 31 13 C31.99 12.01 32.98 11.02 34 10 C34.99 10.33 35.98 10.66 37 11 C37 11.66 37 12.32 37 13 C40.63 13 44.26 13 48 13 C48.17 13.66 48.17 13.66 49 17 C47.35 17 45.7 17 44 17 C43.73 18.22 43.46 19.43 43.19 20.69 C42.5 23.5 41.86 25.23 40.31 27.75 C39 30 39 30 39.16 31.98 C40.27 34.65 41.54 35.22 44.06 36.56 C46.29 37.75 46.29 37.75 48 39 C48 39.99 48 40.98 48 42 C43.87 40.99 41.14 40.15 37.81 37.5 C36.06 36.43 36.06 36.43 34 36 C30.87 37.17 28.12 38.73 25.22 40.39 C20.34 42.83 15.38 43.45 10 44 C10.55 40.17 11.54 37.77 13.88 34.69 C14.39 33.99 14.9 33.29 15.43 32.57 C15.95 32.05 16.47 31.54 17 31 C17.99 31 18.98 31 20 31 C18.94 34.4 17.99 37.01 16 40 C21.2 38.21 25.73 36.52 30 33 C30 28.24 28.61 26.84 26 23 C26 22.01 26 21.02 26 20 C28.54 20.39 29.73 20.7 31.48 22.63 C31.9 23.27 32.32 23.91 32.75 24.56 C33.18 25.2 33.61 25.84 34.05 26.5 C34.2 26.75 34.2 26.75 35 28 C38 25 38 25 41 17 C35.06 17 29.12 17 23 17 C23 15.68 23 14.36 23 13 C23.99 12.67 24.98 12.34 26 12 C27.17 9.93 27.17 9.93 28.19 7.44 C28.79 5.97 29.38 4.51 30 3 C24.06 3 18.12 3 12 3 C12.58 4.55 13.15 6.11 13.75 7.71 C14.5 9.74 15.25 11.78 16 13.81 C16.38 14.84 16.76 15.86 17.16 16.92 C17.52 17.9 17.88 18.88 18.25 19.89 C18.42 20.35 18.42 20.35 19.27 22.64 C20 25 20 25 20 28 C18.68 27.67 17.36 27.34 16 27 C15.67 25.68 15.34 24.36 15 23 C11.7 23 8.4 23 5 23 C4.67 23.83 4.67 23.83 3 28 C2.01 28 1.02 28 0 28 C0.63 22.48 2.51 17.73 4.56 12.62 C4.73 12.21 4.73 12.21 5.56 10.11 C6.37 8.07 7.18 6.03 8 4 C6.02 4 4.04 4 2 4 C1.34 2.68 0.68 1.36 0 0 Z " fill="#FDFDFB" transform="translate(377,533)"/>
<path d="M0 0 C13.72 0 13.72 0 20 4 C21.41 6.82 21.11 9.17 21.1 12.32 C21.09 13.58 21.09 14.83 21.09 16.13 C21.08 17.45 21.07 18.77 21.06 20.12 C21.06 21.46 21.05 22.8 21.05 24.14 C21.04 27.43 21.02 30.71 21 34 C18 35 18 35 13 33 C8.71 32.67 4.42 32.34 0 32 C0 21.44 0 10.88 0 0 Z " fill="#FFFFFF" transform="translate(515,255)"/>
<path d="M0 0 C0.66 0 1.32 0 2 0 C3.29 1.77 3.29 1.77 4.76 4.25 C5.03 4.71 5.03 4.71 6.39 7.01 C6.96 8 7.54 8.98 8.12 10 C8.71 11.01 9.3 12.01 9.91 13.05 C14.62 21.21 19.06 29.43 23 38 C23.36 38.78 23.72 39.56 24.09 40.37 C40.64 76.62 48.22 114.64 48.31 154.38 C48.32 155.27 48.32 156.16 48.32 157.08 C48.34 166.56 48.3 175.74 46 185 C45.01 184.67 44.02 184.34 43 184 C43.07 183.18 43.14 182.36 43.21 181.51 C43.94 172.23 44.24 162.99 44.25 153.69 C44.25 152.95 44.25 152.21 44.25 151.45 C44.18 101.86 29.88 49.27 1.96 7.93 C0.9 6.33 -0.06 4.67 -1 3 C-0.67 2.01 -0.34 1.02 0 0 Z " fill="#E6E7EB" transform="translate(564,178)"/>
<path d="M0 0 C0 10.56 0 21.12 0 32 C-7.75 32.94 -7.75 32.94 -10.17 33.23 C-13.54 33.64 -16.71 34.18 -20 35 C-20 24.77 -20 14.54 -20 4 C-9 0 -9 0 0 0 Z " fill="#FFFFFF" transform="translate(558,255)"/>
<path d="M0 0 C1.07 -0.01 2.15 -0.03 3.25 -0.04 C6.61 0.2 9.3 1 12.44 2.19 C13.28 10.54 13.56 18.79 13.44 27.19 C12.61 27.35 12.61 27.35 8.44 28.19 C8.44 20.6 8.44 13.01 8.44 5.19 C7.12 5.19 5.8 5.19 4.44 5.19 C4.44 12.78 4.44 20.37 4.44 28.19 C3.12 27.86 1.8 27.53 0.44 27.19 C0.44 19.6 0.44 12.01 0.44 4.19 C-0.55 4.19 -1.54 4.19 -2.56 4.19 C-2.56 12.11 -2.56 20.03 -2.56 28.19 C-4.21 28.19 -5.86 28.19 -7.56 28.19 C-7.56 20.27 -7.56 12.35 -7.56 4.19 C-8.22 4.19 -8.88 4.19 -9.56 4.19 C-9.56 12.11 -9.56 20.03 -9.56 28.19 C-10.88 28.19 -12.2 28.19 -13.56 28.19 C-13.56 19.28 -13.56 10.37 -13.56 1.19 C-8.83 0.51 -4.71 0.03 0 0 Z " fill="#FFFFFF" transform="translate(113.5625,268.8125)"/>
<path d="M0 0 C-0.33 1.32 -0.66 2.64 -1 4 C-6.53 3.03 -12.04 2.01 -17.52 0.82 C-63.82 -9.21 -110.21 -8.12 -156.45 1.5 C-159.63 2.12 -162.79 2.59 -166 3 C-166.33 2.01 -166.66 1.02 -167 0 C-154.58 -3.15 -142.2 -5.57 -129.5 -7.25 C-128.27 -7.41 -127.05 -7.58 -125.78 -7.74 C-83.12 -13.15 -41.87 -8.58 0 0 Z " fill="#CEAD6A" transform="translate(413,243)"/>
<path d="M0 0 C3.55 1.69 6.96 3.61 10.38 5.56 C11.3 6.08 12.23 6.6 13.18 7.14 C15.46 8.42 17.73 9.71 20 11 C20 12.32 20 13.64 20 15 C3.83 15 -12.34 15 -29 15 C-28 11 -28 11 -26.3 9.66 C-25.57 9.27 -24.85 8.89 -24.11 8.49 C-23.71 8.28 -23.71 8.28 -21.71 7.19 C-20.88 6.76 -20.04 6.32 -19.19 5.88 C-18.37 5.43 -17.55 4.99 -16.7 4.54 C-14.48 3.34 -12.24 2.16 -10 1 C-9.31 0.62 -8.61 0.25 -7.89 -0.14 C-4.86 -1.52 -3.2 -0.92 0 0 Z " fill="#FEFEFD" transform="translate(227,120)"/>
<path d="M0 0 C-0.33 0.99 -0.66 1.98 -1 3 C-3.56 4.25 -3.56 4.25 -7 5.5 C-8.28 5.97 -9.56 6.44 -10.84 6.92 C-11.52 7.17 -12.2 7.41 -12.89 7.67 C-43.51 18.86 -71.72 34.24 -99 52 C-100.04 52.67 -101.07 53.34 -102.14 54.04 C-108.57 58.26 -114.88 62.67 -121.19 67.06 C-122.02 67.64 -122.85 68.22 -123.71 68.81 C-128.66 72.28 -133.42 75.87 -138.08 79.71 C-140 81 -140 81 -143 81 C-141.87 77.6 -141.16 77.1 -138.34 75.07 C-137.58 74.51 -136.81 73.95 -136.02 73.37 C-135.19 72.77 -134.36 72.18 -133.5 71.56 C-132.64 70.94 -131.78 70.32 -130.89 69.67 C-129.12 68.39 -127.34 67.11 -125.56 65.83 C-123.28 64.2 -121 62.55 -118.73 60.9 C-86.62 37.75 -51.61 17.45 -14.35 3.87 C-12.8 3.3 -11.26 2.71 -9.73 2.1 C-6.22 0.71 -3.83 0 0 0 Z " fill="#F1F1F3" transform="translate(389,159)"/>
<path d="M0 0 C0.66 0.33 1.32 0.66 2 1 C1.66 1.4 1.66 1.4 -0.05 3.41 C-0.95 4.48 -1.85 5.55 -2.75 6.62 C-3.19 7.15 -3.64 7.67 -4.09 8.21 C-7 11.66 -9.56 15.2 -12 19 C-11.55 19.64 -11.09 20.28 -10.62 20.94 C-8.56 24.83 -7.04 28.54 -7 33 C-9.38 36.19 -11.7 37.8 -15 40 C-20.35 40.43 -23.65 40.46 -28 37 C-30.47 33.29 -30.67 30.3 -30 26 C-28.38 22.88 -27.04 20.76 -24.19 18.69 C-22 18 -22 18 -18.75 18 C-13.61 16.63 -12.07 13.83 -9 9.66 C-6.32 6.09 -3.24 3.06 0 0 Z " fill="#CEAD69" transform="translate(116,141)"/>
<path d="M0 0 C1.21 -0 2.42 -0 3.67 -0 C4.93 -0 6.18 0 7.48 0.01 C8.1 0.01 8.1 0.01 11.26 -0 C28.39 0.01 28.39 0.01 32.23 3.38 C33.67 6.13 33.67 6.13 33.73 8.63 C32.28 12.05 30.6 13.85 27.67 16.13 C24.48 16.57 24.48 16.57 21.67 16.13 C19.67 14.13 19.67 14.13 19.42 11.13 C19.67 8.13 19.67 8.13 21.67 6.13 C24.29 6.51 24.29 6.51 26.67 7.13 C26.34 8.12 26.01 9.11 25.67 10.13 C25.01 10.13 24.35 10.13 23.67 10.13 C23.34 10.79 23.01 11.45 22.67 12.13 C24.32 11.47 25.97 10.81 27.67 10.13 C27.67 8.81 27.67 7.49 27.67 6.13 C24.91 4.75 22.72 4.94 19.67 5.13 C19.01 5.79 18.35 6.45 17.67 7.13 C11.48 8.69 6.58 8.1 0.71 5.85 C-2.1 4.86 -4.39 4.71 -7.33 5.13 C-9.21 6.45 -9.21 6.45 -10.33 8.13 C-10.33 9.12 -10.33 10.11 -10.33 11.13 C-9.01 11.13 -7.69 11.13 -6.33 11.13 C-6.99 10.8 -7.65 10.47 -8.33 10.13 C-7.67 8.81 -7.01 7.49 -6.33 6.13 C-3.46 6.71 -2.47 6.99 -0.33 9.13 C-0.49 12.25 -0.94 13.71 -3.08 16.01 C-5.33 17.13 -5.33 17.13 -7.83 17.13 C-11.26 15.76 -12.47 14.31 -14.33 11.13 C-15.04 5.25 -15.04 5.25 -13.14 2.26 C-9.17 -0.21 -4.55 0 0 0 Z " fill="#FFFFFF" transform="translate(103.33203125,252.8671875)"/>
<path d="M0 0 C3.53 1.05 5.48 3.03 8.07 5.62 C9.61 8.69 9.3 11.22 9.07 14.62 C7.89 17.74 6.98 19.87 4.38 21.99 C0.84 22.95 -2.34 23.4 -5.93 22.62 C-8.63 20.96 -10.9 19.06 -12.93 16.62 C-12.93 15.96 -12.93 15.3 -12.93 14.62 C-13.59 13.96 -14.25 13.3 -14.93 12.62 C-14 10.82 -13.06 9.03 -12.12 7.24 C-11.6 6.24 -11.07 5.25 -10.54 4.22 C-7.69 -0.39 -5.19 -0.78 0 0 Z " fill="#CEAD69" transform="translate(557.9296875,158.3828125)"/>
<path d="M0 0 C0.95 -0 1.89 -0 2.87 -0 C40.72 0.01 40.72 0.01 57.31 6.25 C56.98 7.24 56.65 8.23 56.31 9.25 C55.52 9.13 54.73 9.02 53.92 8.9 C50.28 8.37 46.64 7.84 43 7.31 C41.76 7.13 40.51 6.95 39.23 6.76 C38 6.58 36.78 6.41 35.51 6.22 C34.95 6.14 34.95 6.14 32.13 5.73 C23.73 4.67 15.4 4.08 6.94 4.01 C5.99 4 5.04 3.99 4.05 3.98 C0.99 3.96 -2.07 3.95 -5.12 3.94 C-5.65 3.94 -5.65 3.94 -8.28 3.92 C-24.36 3.89 -39.72 4.81 -55.52 8 C-57.69 8.25 -57.69 8.25 -60.69 7.25 C-60.36 6.26 -60.03 5.27 -59.69 4.25 C-55.63 3.77 -51.56 3.29 -47.5 2.81 C-46.37 2.68 -45.24 2.54 -44.07 2.4 C-29.34 0.68 -14.82 0.01 0 0 Z " fill="#728367" transform="translate(329.6875,135.75)"/>
<path d="M0 0 C0.66 0 1.32 0 2 0 C2.33 9.9 2.66 19.8 3 30 C5.64 30 8.28 30 11 30 C13.57 30.37 13.57 30.37 15.69 30.88 C16.44 31.05 17.19 31.23 17.97 31.42 C20 32 20 32 22.69 33.19 C25.8 34.28 27.83 33.81 31 33 C31.61 32.67 32.21 32.33 32.84 31.99 C35.45 30.79 37.64 30.59 40.5 30.38 C41.44 30.3 42.38 30.23 43.34 30.15 C45.56 30.02 47.78 30 50 30 C50.33 20.43 50.66 10.86 51 1 C51.99 0.67 52.98 0.34 54 0 C54 11.22 54 22.44 54 34 C44.37 34.31 44.37 34.31 41.38 34.39 C36.15 34.61 32.62 35.34 28 38 C25.27 37.81 23.52 37.29 21.13 35.97 C18.77 34.89 17.08 34.71 14.49 34.62 C13.65 34.59 12.81 34.55 11.94 34.52 C11.08 34.49 10.21 34.46 9.31 34.44 C7.58 34.38 5.85 34.31 4.11 34.25 C3.35 34.22 2.58 34.2 1.79 34.17 C0 34 0 34 -1 33 C-1.1 30.64 -1.14 28.3 -1.13 25.94 C-1.13 25.23 -1.13 24.52 -1.14 23.8 C-1.14 22.3 -1.13 20.8 -1.13 19.31 C-1.13 17.01 -1.13 14.71 -1.14 12.41 C-1.14 10.96 -1.13 9.51 -1.13 8.06 C-1.13 7.37 -1.14 6.68 -1.14 5.97 C-1.11 1.11 -1.11 1.11 0 0 Z " fill="#FFFFFF" transform="translate(510,259)"/>
<path d="M0 0 C2.69 2.18 4.46 3.91 6 7 C6.38 11.97 6.16 15.05 3 19 C-0.22 21.33 -3.11 21.54 -7 21 C-10.52 18.94 -12.43 17.74 -13.7 13.84 C-14.29 10.04 -14.27 7.64 -12.75 4.06 C-9.16 -0.17 -5.33 -1.05 0 0 Z " fill="#EFEFF1" transform="translate(917,260)"/>
<path d="M0 0 C0 0.66 0 1.32 0 2 C-6.68 4.6 -13.37 7.19 -20.06 9.79 C-22.32 10.67 -24.59 11.55 -26.86 12.43 C-48.55 20.86 -48.55 20.86 -58.47 24.62 C-59.7 25.08 -60.93 25.55 -62.2 26.03 C-65 27 -65 27 -67 27 C-66 24 -66 24 -64.37 22.9 C-63.66 22.56 -62.95 22.22 -62.22 21.87 C-61.41 21.48 -60.6 21.09 -59.77 20.69 C-59.32 20.48 -59.32 20.48 -57.06 19.44 C-56.14 19 -55.21 18.57 -54.26 18.12 C-8.61 -2.87 -8.61 -2.87 0 0 Z " fill="#83896A" transform="translate(227,250)"/>
<path d="M0 0 C1.32 0.33 2.64 0.66 4 1 C3.56 1.46 3.12 1.93 2.67 2.41 C-8.19 14.24 -16.96 27.14 -24.88 41.07 C-27.43 45.47 -30.22 49.74 -33 54 C-33.99 53.67 -34.98 53.34 -36 53 C-34.57 47.99 -32.4 44.03 -29.62 39.69 C-29.19 39 -28.75 38.31 -28.3 37.59 C-19.75 24.27 -10.55 11.8 0 0 Z " fill="#ECEDEF" transform="translate(412,259)"/>
<path d="M0 0 C9.08 1.28 15.72 9.5 22.19 15.47 C24.83 17.85 27.54 20.09 30.31 22.31 C34.89 26.02 39.29 29.89 43.62 33.88 C44.24 34.43 44.86 34.99 45.49 35.57 C49.88 39.64 49.88 39.64 51 43 C46.87 43 45.3 40.78 42.5 38.06 C37.71 33.54 32.77 29.31 27.64 25.17 C25.08 23.06 22.63 20.87 20.19 18.62 C15.53 14.36 10.61 10.5 5.56 6.72 C1.11 3.32 1.11 3.32 0 0 Z " fill="#CFAE6A" transform="translate(545,320)"/>
<path d="M0 0 C-1.54 4.24 -4.7 6.34 -8.19 8.94 C-13.54 13.02 -18.69 17.25 -23.75 21.69 C-38.64 34.72 -38.64 34.72 -47 40 C-45.71 34.98 -43.96 32.56 -40.06 29.19 C-39.07 28.32 -38.08 27.46 -37.05 26.57 C-36.05 25.72 -35.04 24.87 -34 24 C-33.56 23.63 -33.56 23.63 -31.32 21.74 C-28.57 19.46 -25.79 17.23 -23 15 C-22.71 14.77 -22.71 14.77 -21.27 13.6 C-19.43 12.13 -17.59 10.66 -15.75 9.19 C-15.47 8.96 -15.47 8.96 -14.03 7.8 C-4.17 0 -4.17 0 0 0 Z " fill="#7F876A" transform="translate(104,320)"/>
<path d="M0 0 C2.41 0.38 3.71 0.7 5.44 2.46 C5.88 3.09 6.32 3.72 6.78 4.37 C7.28 5.08 7.79 5.79 8.31 6.52 C8.58 6.91 8.58 6.91 9.94 8.88 C10.5 9.67 11.07 10.47 11.65 11.3 C13.45 13.86 15.23 16.43 17 19 C17.58 19.84 18.16 20.68 18.76 21.55 C21.56 25.61 24.33 29.68 27.1 33.75 C28.82 36.29 30.56 38.8 32.37 41.28 C33.01 42.16 33.65 43.03 34.31 43.94 C34.84 44.65 35.38 45.36 35.93 46.09 C37 48 37 48 37 52 C35.68 51.67 34.36 51.34 33 51 C32.9 50.25 32.8 49.5 32.69 48.73 C31.93 45.71 31.07 44.59 28.93 42.39 C24.47 37.54 20.84 32.24 17.12 26.81 C15.72 24.77 14.32 22.73 12.91 20.7 C12.24 19.72 11.57 18.74 10.88 17.74 C9.26 15.37 7.62 13.02 5.96 10.68 C5.54 10.08 5.11 9.47 4.67 8.85 C3.58 7.31 2.5 5.77 1.41 4.23 C0 2 0 2 0 0 Z " fill="#7F876A" transform="translate(562,314)"/>
<path d="M0 0 C5.99 2.24 5.99 2.24 8.84 3.31 C12.91 4.85 16.98 6.36 21.07 7.83 C33.29 12.28 44.64 17.67 56 24 C56 24.99 56 25.98 56 27 C51.85 25.7 48.01 24.14 44.1 22.24 C43.53 21.97 43.53 21.97 40.68 20.61 C40.09 20.32 39.5 20.04 38.89 19.75 C25.89 13.54 12.75 8.36 -1 4 C-0.67 2.68 -0.34 1.36 0 0 Z " fill="#CDAD69" transform="translate(433,250)"/>
<path d="M0 0 C19.45 2.48 36.69 11.33 54 20 C54 20.66 54 21.32 54 22 C48.98 21.45 45.06 19.71 40.62 17.44 C31.5 12.93 22.02 9.85 12.34 6.76 C8.09 5.4 4.05 3.84 0 2 C0 1.34 0 0.68 0 0 Z " fill="#E8E9EC" transform="translate(108,172)"/>
<path d="M0 0 C0 7.26 0 14.52 0 22 C-2.31 22 -4.62 22 -7 22 C-7.33 14.74 -7.66 7.48 -8 0 C-5 -1 -5 -1 0 0 Z " fill="#F8F4EB" transform="translate(227,138)"/>
<path d="M0 0 C1.13 0.02 2.27 0.04 3.44 0.06 C3.77 0.72 4.1 1.38 4.44 2.06 C4.11 3.05 3.78 4.04 3.44 5.06 C3.29 6.47 3.19 7.88 3.12 9.29 C3.08 10.1 3.04 10.9 2.99 11.72 C2.95 12.56 2.92 13.39 2.88 14.25 C2.85 14.67 2.85 14.67 2.74 16.81 C2.64 18.89 2.54 20.98 2.44 23.06 C0.46 23.06 -1.52 23.06 -3.56 23.06 C-4.73 15.76 -4.9 8.45 -4.56 1.06 C-3.56 0.06 -3.56 0.06 0 0 Z " fill="#FDFDFC" transform="translate(238.5625,136.9375)"/>
<path d="M0 0 C1.25 0.01 2.5 0.01 3.79 0.02 C4.12 0.02 4.12 0.02 5.81 0.02 C7.94 0.03 10.07 0.04 12.2 0.05 C13.64 0.06 15.08 0.06 16.52 0.06 C20.06 0.08 23.59 0.09 27.13 0.11 C27.13 1.76 27.13 3.41 27.13 5.11 C16.57 5.11 6.01 5.11 -4.87 5.11 C-3.62 0.14 -3.62 0.14 0 0 Z " fill="#FFFFFF" transform="translate(100.867431640625,297.886474609375)"/>
<path d="M0 0 C16.5 0 33 0 50 0 C50 0.99 50 1.98 50 3 C33.5 3 17 3 0 3 C0 2.01 0 1.02 0 0 Z " fill="#FFFFFF" transform="translate(198,167)"/>
<path d="M0 0 C0.66 0.33 1.32 0.66 2 1 C0.73 4.48 -0.73 7.26 -2.94 10.22 C-3.52 11 -4.1 11.78 -4.7 12.59 C-5.31 13.4 -5.93 14.22 -6.56 15.06 C-7.19 15.9 -7.82 16.75 -8.47 17.61 C-9.73 19.3 -10.99 20.98 -12.25 22.67 C-13.77 24.69 -15.28 26.73 -16.79 28.77 C-20.01 33.13 -23.15 37.18 -27 41 C-27.66 41.99 -28.32 42.98 -29 44 C-29.16 43.5 -29.16 43.5 -30 41 C-28.73 38.86 -27.43 36.97 -25.94 35 C-25.5 34.4 -25.05 33.8 -24.6 33.18 C-23.61 31.85 -22.63 30.52 -21.63 29.19 C-19.89 26.85 -18.15 24.49 -16.43 22.13 C-10.99 14.72 -5.52 7.34 0 0 Z " fill="#EFEFF1" transform="translate(86,314)"/>
<path d="M0 0 C1.98 0 3.96 0 6 0 C6 7.59 6 15.18 6 23 C4.02 23 2.04 23 0 23 C-0.2 19.35 -0.38 15.71 -0.56 12.06 C-0.62 11.02 -0.67 9.98 -0.73 8.91 C-0.78 7.92 -0.83 6.93 -0.88 5.91 C-0.93 4.99 -0.97 4.08 -1.02 3.13 C-1 1 -1 1 0 0 Z " fill="#FFFFFF" transform="translate(205,137)"/>
<path d="M0 0 C8.3 3.83 14.76 11.55 21.36 17.74 C25.7 21.8 30.08 25.8 34.51 29.77 C37.54 32.48 40.55 35.2 43.56 37.94 C43.83 38.17 43.83 38.17 45.16 39.37 C48.89 42.77 48.89 42.77 50 45 C46.14 43.4 43.42 40.78 40.44 37.94 C36.54 34.29 32.6 30.78 28.44 27.44 C23.71 23.63 19.24 19.61 14.79 15.49 C11.04 12.14 7.1 9.07 3.12 6.01 C0.93 3.94 0.33 2.94 0 0 Z " fill="#CEAD69" transform="translate(325,62)"/>
<path d="M0 0 C2.55 4.39 3.38 8.96 3 14 C0.03 14 -2.94 14 -6 14 C-7.42 10.02 -8.62 6.22 -9 2 C-5.96 -1.04 -4.06 -1.35 0 0 Z " fill="#838A69" transform="translate(455,132)"/>
<path d="M0 0 C0.99 0.33 1.98 0.66 3 1 C1.64 4.14 0.24 5.84 -2.44 7.94 C-12.41 16.39 -20.16 27.61 -28 38 C-28.66 37.67 -29.32 37.34 -30 37 C-26.62 27.22 -17.62 19.38 -10.66 11.88 C-7.05 7.97 -3.52 3.99 0 0 Z " fill="#718367" transform="translate(161,195)"/>
<path d="M0 0 C4.61 0.68 7.07 3.66 10.19 6.88 C10.76 7.46 11.33 8.04 11.93 8.64 C16.97 13.83 21.57 19.27 26 25 C26.62 25.79 27.24 26.58 27.88 27.39 C32 32.71 32 32.71 32 35 C28.63 34.8 27.82 33.8 25.52 31.23 C24.61 30.03 23.71 28.83 22.81 27.62 C21.84 26.35 20.86 25.07 19.88 23.79 C19.39 23.15 18.91 22.51 18.41 21.85 C13.12 14.91 7.86 8.46 1 3 C0.34 2.34 -0.32 1.68 -1 1 C-0.67 0.67 -0.34 0.34 0 0 Z " fill="#80886A" transform="translate(489,197)"/>
<path d="M0 0 C0.66 3.63 1.32 7.26 2 11 C-1.23 13.15 -2.28 13.2 -6 13 C-6.65 11.59 -7.29 10.17 -7.94 8.75 C-8.3 7.96 -8.66 7.17 -9.03 6.36 C-9.9 4.24 -10.51 2.23 -11 0 C-6.68 -0.9 -4.49 -0.9 0 0 Z " fill="#818969" transform="translate(418,148)"/>
<path d="M0 0 C0.45 2.25 0.45 2.25 0.69 5 C0.77 5.91 0.86 6.81 0.95 7.75 C0.97 8.49 0.98 9.24 1 10 C-0.59 11.59 -2.25 11.17 -4.44 11.19 C-4.84 11.19 -4.84 11.19 -6.87 11.23 C-9 11 -9 11 -11 9 C-11.2 6.84 -11.2 6.84 -11.12 4.38 C-11.12 3.97 -11.12 3.97 -11.07 1.9 C-11.05 1.27 -11.02 0.65 -11 0 C-9.54 -0.19 -8.08 -0.38 -6.62 -0.56 C-5.81 -0.67 -5 -0.77 -4.16 -0.88 C-2 -1 -2 -1 0 0 Z " fill="#7A8767" transform="translate(445,135)"/>
<path d="M0 0 C1.98 0.66 3.96 1.32 6 2 C6.18 6.55 6 9.88 4 14 C1.03 14 -1.94 14 -5 14 C-4.59 8.01 -3.68 4.75 0 0 Z " fill="#6F8465" transform="translate(413,131)"/>
<path d="M0 0 C2.97 0.33 5.94 0.66 9 1 C8.04 10.57 8.04 10.57 6 13 C3 13.88 3 13.88 0 14 C-2 12 -2 12 -2.01 9.69 C-1.96 9.24 -1.96 9.24 -1.69 7 C-1.59 6.11 -1.49 5.23 -1.39 4.31 C-1 2 -1 2 0 0 Z " fill="#818969" transform="translate(449,147)"/>
<path d="M0 0 C0.66 0 1.32 0 2 0 C1.42 3.69 0.42 6.38 -1.48 9.59 C-1.98 10.45 -2.48 11.31 -3 12.2 C-3.54 13.1 -4.07 14.01 -4.62 14.94 C-9.42 23.15 -13.9 31.42 -18 40 C-18.33 40 -18.66 40 -19 40 C-19.7 33.91 -17.29 29.74 -14.56 24.5 C-14.11 23.62 -13.67 22.75 -13.21 21.84 C-10.35 16.35 -7.32 10.98 -4 5.75 C-3.63 5.16 -3.25 4.57 -2.87 3.96 C-1.97 2.6 -0.99 1.29 0 0 Z " fill="#546768" transform="translate(87,178)"/>
<path d="M0 0 C3.63 0 7.26 0 11 0 C11 3.3 11 6.6 11 10 C7.04 10 3.08 10 -1 10 C-0.67 6.7 -0.34 3.4 0 0 Z " fill="#838A69" transform="translate(421,135)"/>
<path d="M0 0 C12.54 0 25.08 0 38 0 C38 0.99 38 1.98 38 3 C25.46 3 12.92 3 0 3 C0 2.01 0 1.02 0 0 Z " fill="#FFFFFF" transform="translate(94,248)"/>
<path d="M0 0 C0 2.97 0 5.94 0 9 C-3.3 9.33 -6.6 9.66 -10 10 C-11.32 6.38 -12 3.9 -12 0 C-7.74 -1.16 -4.32 -0.76 0 0 Z " fill="#868B69" transform="translate(432,148)"/>
<path d="M0 0 C0.91 0 1.81 0.01 2.75 0.01 C3.2 0.01 3.2 0.01 5.5 0 C7.75 0.13 7.75 0.13 8.75 1.13 C8.66 3.16 8.66 3.16 8.38 5.63 C8.28 6.45 8.19 7.26 8.1 8.1 C7.75 10.13 7.75 10.13 6.75 11.13 C5.06 11.04 3.37 10.89 1.69 10.7 C0.77 10.59 -0.15 10.49 -1.1 10.39 C-1.81 10.3 -2.52 10.22 -3.25 10.13 C-3.28 8.65 -3.3 7.17 -3.31 5.7 C-3.32 4.87 -3.34 4.05 -3.35 3.2 C-3.21 0.28 -2.92 0.17 0 0 Z " fill="#818969" transform="translate(437.25,146.8671875)"/>
<path d="M0 0 C14.19 0 28.38 0 43 0 C43.16 0.5 43.16 0.5 44 3 C38.38 3.02 32.75 3.04 27.13 3.05 C25.22 3.06 23.3 3.07 21.39 3.08 C18.64 3.09 15.89 3.09 13.14 3.1 C12.29 3.1 11.43 3.11 10.55 3.11 C10.15 3.11 10.15 3.11 8.13 3.11 C7.42 3.12 6.72 3.12 6 3.12 C3.89 2.99 2.03 2.57 0 2 C0 1.34 0 0.68 0 0 Z " fill="#FFFFFF" transform="translate(201,162)"/>
<path d="M0 0 C5.61 0 11.22 0 17 0 C14.19 9.24 14.19 9.24 11 12 C10.62 11.47 10.25 10.94 9.86 10.39 C9.35 9.68 8.84 8.98 8.31 8.25 C7.81 7.55 7.31 6.86 6.8 6.14 C5 4 5 4 0 0 Z " fill="#EFF0F1" transform="translate(401,550)"/>
<path d="M0 0 C3.06 0.38 3.06 0.38 5 2.06 C6.35 5.01 6.17 6.36 5.06 9.38 C2.06 11.38 2.06 11.38 -0.5 11.19 C-2.94 10.38 -2.94 10.38 -4.94 7.38 C-5.19 4.81 -5.19 4.81 -4.94 2.38 C-2.94 0.38 -2.94 0.38 0 0 Z " fill="#FFFFFF" transform="translate(208.9375,512.625)"/>
<path d="M0 0 C0.37 0.19 0.37 0.19 2.25 1.12 C2.58 3.43 2.91 5.75 3.25 8.12 C1.56 9.69 1.56 9.69 -0.75 11.12 C-5.16 10.71 -5.16 10.71 -6.75 9.12 C-6.89 6.45 -6.79 3.8 -6.75 1.12 C-4.02 -0.69 -3.21 -1.02 0 0 Z " fill="#FFFFFF" transform="translate(193.75,512.875)"/>
<path d="M0 0 C2 3 2 3 1.94 6.06 C1 9 1 9 -1.31 10.56 C-4 11 -4 11 -6.25 9.94 C-8.39 7.57 -8.92 6.18 -9 3 C-6.84 -0.69 -3.97 -0.51 0 0 Z " fill="#FFFFFF" transform="translate(230,513)"/>
<path d="M0 0 C0.99 0.16 0.99 0.16 6 1 C7.27 4.65 6.76 7.49 6.06 11.25 C5.87 12.33 5.67 13.41 5.47 14.52 C5.39 14.93 5.39 14.93 5 17 C2.74 14.74 2.17 12.96 1 10 C0.42 9.18 -0.15 8.35 -0.75 7.5 C-2 5 -2 5 -1.19 2.19 C-0.8 1.47 -0.4 0.74 0 0 Z " fill="#83896A" transform="translate(458,176)"/>
<path d="M0 0 C0 0.99 0 1.98 0 3 C-1.39 4.36 -1.39 4.36 -3.32 5.74 C-4.02 6.25 -4.72 6.76 -5.44 7.29 C-6.18 7.81 -6.92 8.33 -7.69 8.88 C-12.49 12.32 -16.95 15.68 -21 20 C-21.99 19.67 -22.98 19.34 -24 19 C-22.69 15.06 -20.16 13.56 -16.94 11.19 C-16.35 10.75 -15.76 10.31 -15.16 9.85 C-13.98 8.97 -12.81 8.09 -11.63 7.22 C-10.22 6.16 -8.82 5.09 -7.43 4.01 C-6.73 3.47 -6.03 2.93 -5.31 2.38 C-4.71 1.91 -4.11 1.44 -3.49 0.96 C-2 0 -2 0 0 0 Z " fill="#798569" transform="translate(188,175)"/>
<path d="M0 0 C0.99 0 1.98 0 3 0 C4.23 6.4 4.23 6.4 3.06 9.44 C2.71 9.95 2.36 10.47 2 11 C-0.31 11 -2.62 11 -5 11 C-5.33 10.01 -5.66 9.02 -6 8 C-4.23 5 -2.46 2.46 0 0 Z " fill="#848A6A" transform="translate(429,122)"/>
<path d="M0 0 C0.33 0.99 0.66 1.98 1 3 C-1.59 7.88 -2.68 8.87 -8 11 C-8 7.37 -8 3.74 -8 0 C-4.71 -1.1 -3.29 -0.8 0 0 Z " fill="#8A8E69" transform="translate(442,160)"/>
<path d="M0 0 C2.64 0 5.28 0 8 0 C8 3.63 8 7.26 8 11 C1.95 8.58 1.6 7.6 -1 2 C-0.67 1.34 -0.34 0.68 0 0 Z " fill="#818969" transform="translate(424,160)"/>
<path d="M0 0 C5.56 0.28 8.76 3.84 12.69 7.38 C13.36 7.97 14.04 8.56 14.74 9.16 C17.59 11.69 19.87 13.8 22 17 C21.01 17.33 20.02 17.66 19 18 C18.67 17.01 18.34 16.02 18 15 C16.67 14.32 15.34 13.66 14 13 C11.69 11.26 9.51 9.38 7.31 7.5 C7.02 7.25 7.02 7.25 5.51 5.99 C1.13 2.26 1.13 2.26 0 0 Z " fill="#7F876A" transform="translate(467,178)"/>
<path d="M0 0 C4.63 1.16 5.4 2.15 8 6 C8.33 7.32 8.66 8.64 9 10 C6.03 10 3.06 10 0 10 C0 6.7 0 3.4 0 0 Z " fill="#718565" transform="translate(434,122)"/>
<path d="M0 0 C0.66 0.33 1.32 0.66 2 1 C-3 7 -8 13 -13 19 C-13.99 18.67 -14.98 18.34 -16 18 C-10.96 11.68 -5.89 5.55 0 0 Z " fill="#80886B" transform="translate(116,141)"/>
<path d="M0 0 C0.99 0.33 1.98 0.66 3 1 C-1.45 6.58 -6.24 10.79 -12 15 C-12 12 -12 12 -9.38 9.08 C-8.26 7.98 -7.13 6.89 -6 5.81 C-5.43 5.25 -4.86 4.69 -4.27 4.12 C-2.85 2.74 -1.43 1.37 0 0 Z " fill="#7F876A" transform="translate(133,124)"/>
<path d="M0 0 C4.95 0 9.9 0 15 0 C14.67 0.99 14.34 1.98 14 3 C9.38 3 4.76 3 0 3 C0 2.01 0 1.02 0 0 Z " fill="#FFFFFF" transform="translate(105,264)"/>
<path d="M0 0 C-0.66 2.31 -1.32 4.62 -2 7 C-6.75 8.12 -6.75 8.12 -9 7 C-7.46 2.93 -4.57 0 0 0 Z " fill="#90906A" transform="translate(424,123)"/>
<path d="M0 0 C2.56 0.88 2.56 0.88 4.38 3.31 C5.56 5.88 5.56 5.88 5.56 7.88 C0.61 6.64 -1.55 5.09 -4.44 0.88 C-2.44 -0.12 -2.44 -0.12 0 0 Z " fill="#8F8F6A" transform="translate(419.4375,162.125)"/>
<path d="M0 0 C3.82 0.53 6.06 1.5 9 4 C8.67 5.32 8.34 6.64 8 8 C6.25 7.94 6.25 7.94 4 7 C2.4 4.76 1.25 2.46 0 0 Z " fill="#8C8E69" transform="translate(441,123)"/>
<path d="M0 0 C0.99 0.33 1.98 0.66 3 1 C3.33 3.31 3.66 5.62 4 8 C2.02 8 0.04 8 -2 8 C-1.12 2.25 -1.12 2.25 0 0 Z " fill="#F9F9FA" transform="translate(386,544)"/>
<path d="M0 0 C1.32 0 2.64 0 4 0 C3.62 2.75 3.19 3.82 1.12 5.75 C-1 7 -1 7 -4 7 C-2.93 4.08 -2.22 2.22 0 0 Z " fill="#91906A" transform="translate(446,162)"/>
<path d="M0 0 C3.37 1.39 4.99 2.98 7 6 C3.63 4.61 2.01 3.02 0 0 Z " fill="#CFAE6A" transform="translate(375,107)"/>
<path d="" fill="#CFAE6A" transform="translate(0,0)"/>
<path d="" fill="#CFAE6A" transform="translate(0,0)"/>
<path d="" fill="#CFAE6A" transform="translate(0,0)"/>
<path d="" fill="#CFAE6A" transform="translate(0,0)"/>
<path d="" fill="#CFAE6A" transform="translate(0,0)"/>
</svg>
